<svg width="1280" height="720" xmlns="http://www.w3.org/2000/svg" xmlns:xlink="http://www.w3.org/1999/xlink" overflow="hidden"><defs><radialGradient cx="6096000" cy="3429000" r="6994230" fx="6096000" fy="3429000" gradientUnits="userSpaceOnUse" spreadMethod="pad" id="fill0" gradientTransform="scale(0.000104987 0.000104987)"><stop offset="0" stop-color="#F9EFA0"/><stop offset="0.06" stop-color="#F9EFA0"/><stop offset="0.39" stop-color="#BA8A48"/><stop offset="1" stop-color="#BA8A48"/></radialGradient><radialGradient cx="1686798" cy="393170" r="7005795" fx="1686798" fy="393170" gradientUnits="userSpaceOnUse" spreadMethod="pad" id="fill1" gradientTransform="matrix(0.000104987 0 0 0.000104987 463 319)"><stop offset="0" stop-color="#F9EFA0"/><stop offset="0.06" stop-color="#F9EFA0"/><stop offset="0.39" stop-color="#BA8A48"/><stop offset="1" stop-color="#BA8A48"/></radialGradient><radialGradient cx="-434133" cy="1436163" r="6984988" fx="-434131" fy="1436163" gradientUnits="userSpaceOnUse" spreadMethod="pad" id="fill2" gradientTransform="matrix(0.000104987 0 0 0.000104987 686 209)"><stop offset="0" stop-color="#F9EFA0"/><stop offset="0.06" stop-color="#F9EFA0"/><stop offset="0.39" stop-color="#BA8A48"/><stop offset="1" stop-color="#BA8A48"/></radialGradient><radialGradient cx="1601358" cy="2221020" r="6997317" fx="1601358" gradientUnits="userSpaceOnUse" spreadMethod="pad" id="fill3" gradientTransform="matrix(0.000104987 0 0 0.000104987 472 127)"><stop offset="0" stop-color="#F9EFA0"/><stop offset="0.06" stop-color="#F9EFA0"/><stop offset="0.39" stop-color="#BA8A48"/><stop offset="1" stop-color="#BA8A48"/></radialGradient><linearGradient x1="365.667" y1="597.047" x2="914.333" y2="597.047" gradientUnits="userSpaceOnUse" spreadMethod="reflect" id="fill4"><stop offset="0" stop-color="#BA8A48"/><stop offset="0.26" stop-color="#BA8A48"/><stop offset="0.87" stop-color="#F9EFA0"/><stop offset="1" stop-color="#F9EFA0"/></linearGradient></defs><g><rect x="0" y="0" width="1280" height="720" fill="url(#fill0)"/><rect x="0" y="0" width="1280" height="720"/><path d="M466.939 481.01C465.932 481.01 464.924 480.624 464.157 479.857 462.618 478.318 462.618 475.831 464.157 474.292L618.284 320.164C619.823 318.625 622.31 318.625 623.849 320.164 625.388 321.702 625.388 324.19 623.849 325.728L469.722 479.857C468.954 480.624 467.947 481.01 466.939 481.01Z" fill="url(#fill1)" fill-rule="evenodd"/><path d="M711.514 260.004C704.702 260.004 698.298 257.352 693.48 252.534 688.661 247.721 686.009 241.318 686.009 234.504 686.009 227.69 688.665 221.287 693.48 216.473L693.48 216.473 693.48 216.473C698.298 211.656 704.698 209.004 711.514 209.004 718.329 209.004 724.733 211.656 729.552 216.473 739.495 226.418 739.495 242.593 729.552 252.534 724.733 257.352 718.329 260.004 711.514 260.004ZM711.514 216.854C706.797 216.854 702.363 218.69 699.028 222.025L699.028 222.025C695.689 225.359 693.857 229.792 693.857 234.508 693.857 239.223 695.693 243.656 699.028 246.991 702.363 250.326 706.793 252.162 711.514 252.162 716.234 252.162 720.664 250.326 724.003 246.991 730.886 240.11 730.886 228.91 724.003 222.025 720.664 218.686 716.23 216.854 711.514 216.854Z" fill="url(#fill2)" fill-rule="evenodd"/><path d="M714.863 332.403C777.576 259.436 811.921 195.23 816.948 141.573 817.318 137.615 815.915 133.728 813.1 130.913 810.286 128.099 806.414 126.692 802.437 127.065 748.78 132.089 684.57 166.458 611.595 229.178L538.318 227.319C527.528 226.965 517.073 231.246 509.483 238.84L476.077 272.246C472.543 275.779 471.199 280.775 472.484 285.606 473.77 290.436 477.421 294.104 482.271 295.417L571.075 318.874C571.409 318.961 571.747 319.004 572.081 319.004 573.822 319.004 575.414 317.841 575.878 316.08 576.432 313.981 575.182 311.827 573.083 311.273L484.307 287.823C482.22 287.257 480.64 285.673 480.086 283.582 479.528 281.494 480.11 279.333 481.639 277.804L515.045 244.397C521.121 238.321 529.537 234.972 538.125 235.176L612.912 237.071C613.124 237.075 613.317 236.988 613.521 236.957 613.8 236.921 614.076 236.898 614.343 236.804 614.484 236.748 614.598 236.654 614.732 236.587 615.019 236.446 615.322 236.332 615.577 236.116 687.766 173.843 750.887 139.785 803.168 134.891 804.779 134.746 806.383 135.316 807.535 136.471 808.69 137.623 809.264 139.219 809.111 140.838 804.249 192.84 770.528 255.568 708.893 327.282 708.724 327.478 708.653 327.714 708.531 327.93 707.56 328.669 706.9 329.793 706.932 331.106L708.822 405.89C709.042 414.486 705.682 422.893 699.605 428.966L666.199 462.372C664.67 463.901 662.52 464.479 660.421 463.929 658.33 463.371 656.746 461.795 656.18 459.707L631.861 370.039C631.291 367.948 629.141 366.69 627.039 367.276 624.944 367.846 623.705 370 624.271 372.098L648.594 461.767C649.899 466.594 653.566 470.237 658.393 471.527 659.603 471.849 660.818 472.006 662.025 472.006 665.633 472.002 669.108 470.587 671.757 467.934L705.163 434.528C712.757 426.942 716.951 416.432 716.683 405.693L714.828 332.427C714.844 332.415 714.855 332.411 714.863 332.403Z" fill="url(#fill3)" fill-rule="evenodd"/><path d="M725.698 608.053C725.948 608.053 726.365 608.272 726.948 608.709 728.76 610.251 730.333 611.793 731.667 613.334 731.792 613.48 731.948 613.668 732.135 613.897 732.323 614.126 732.458 614.319 732.542 614.475 732.625 614.631 732.667 614.803 732.667 614.991 732.667 615.178 732.62 615.355 732.526 615.522 732.432 615.688 732.271 615.918 732.042 616.209L731.635 616.709C730.385 618.105 728.823 619.626 726.948 621.272 726.406 621.709 725.99 621.928 725.698 621.928 725.552 621.928 725.391 621.881 725.214 621.787 725.036 621.694 724.771 621.522 724.417 621.272 722.792 619.959 721.219 618.407 719.698 616.616 719.573 616.47 719.417 616.287 719.229 616.069 719.042 615.85 718.906 615.662 718.823 615.506 718.74 615.35 718.698 615.178 718.698 614.991 718.698 614.782 718.745 614.595 718.839 614.428 718.932 614.261 719.068 614.079 719.245 613.881 719.422 613.683 719.573 613.501 719.698 613.334 720.802 612.063 722.396 610.522 724.479 608.709 724.792 608.459 725.036 608.287 725.214 608.194 725.391 608.1 725.552 608.053 725.698 608.053ZM833.823 606.209C831.094 606.209 828.984 606.423 827.495 606.85 826.005 607.277 825 607.834 824.479 608.522 823.958 609.209 823.698 610.022 823.698 610.959 823.698 613.105 825 614.178 827.604 614.178 829.354 614.178 830.745 613.735 831.776 612.85 832.807 611.964 833.49 610.907 833.823 609.678ZM497.823 606.209C495.094 606.209 492.984 606.423 491.495 606.85 490.005 607.277 489 607.834 488.479 608.522 487.958 609.209 487.698 610.022 487.698 610.959 487.698 613.105 489 614.178 491.604 614.178 493.354 614.178 494.745 613.735 495.776 612.85 496.807 611.964 497.49 610.907 497.823 609.678ZM435.823 606.209C433.094 606.209 430.984 606.423 429.495 606.85 428.005 607.277 427 607.834 426.479 608.522 425.958 609.209 425.698 610.022 425.698 610.959 425.698 613.105 427 614.178 429.604 614.178 431.354 614.178 432.745 613.735 433.776 612.85 434.807 611.964 435.49 610.907 435.823 609.678ZM792.104 595.834C788.979 595.834 786.865 597.084 785.76 599.584L785.76 606.366C785.76 608.47 786.297 610.178 787.37 611.491 788.443 612.803 789.969 613.459 791.948 613.459 794.219 613.459 795.969 612.668 797.198 611.084 798.427 609.501 799.042 607.23 799.042 604.272 799.042 601.438 798.474 599.324 797.339 597.928 796.203 596.532 794.458 595.834 792.104 595.834ZM897.104 594.522C895.208 594.522 893.76 595.126 892.76 596.334 891.76 597.543 891.135 599.178 890.885 601.241L901.073 601.241C901.656 601.241 902.068 601.131 902.307 600.912 902.547 600.694 902.667 600.313 902.667 599.772 902.667 598.209 902.188 596.944 901.229 595.975 900.271 595.006 898.896 594.522 897.104 594.522ZM673.104 594.522C671.208 594.522 669.76 595.126 668.76 596.334 667.76 597.543 667.135 599.178 666.885 601.241L677.073 601.241C677.656 601.241 678.068 601.131 678.307 600.912 678.547 600.694 678.667 600.313 678.667 599.772 678.667 598.209 678.188 596.944 677.229 595.975 676.271 595.006 674.896 594.522 673.104 594.522ZM584.104 594.522C582.208 594.522 580.76 595.126 579.76 596.334 578.76 597.543 578.135 599.178 577.885 601.241L588.073 601.241C588.656 601.241 589.068 601.131 589.307 600.912 589.547 600.694 589.667 600.313 589.667 599.772 589.667 598.209 589.188 596.944 588.229 595.975 587.271 595.006 585.896 594.522 584.104 594.522ZM552.604 588.647 559.042 588.647C559.667 588.647 560.109 588.767 560.37 589.006 560.63 589.246 560.76 589.678 560.76 590.303L560.76 618.991C560.76 619.616 560.63 620.048 560.37 620.287 560.109 620.527 559.667 620.647 559.042 620.647L552.604 620.647C551.979 620.647 551.536 620.527 551.276 620.287 551.016 620.048 550.885 619.616 550.885 618.991L550.885 590.303C550.885 589.678 551.016 589.246 551.276 589.006 551.536 588.767 551.979 588.647 552.604 588.647ZM609.135 587.928C609.406 587.928 609.688 588.032 609.979 588.241 611.708 589.491 613.073 590.73 614.073 591.959 614.219 592.147 614.312 592.298 614.354 592.412 614.396 592.527 614.417 592.709 614.417 592.959 614.417 595.73 614.734 599.037 615.37 602.881 616.005 606.725 616.792 609.751 617.729 611.959L617.917 611.959C618.583 610.522 619.318 608.465 620.12 605.787 620.922 603.11 621.661 600.392 622.339 597.631 623.016 594.871 623.5 592.699 623.792 591.116 623.917 590.345 624.224 589.813 624.714 589.522 625.203 589.23 625.938 589.084 626.917 589.084L630.542 589.084C631.562 589.084 632.302 589.235 632.76 589.537 633.219 589.84 633.5 590.366 633.604 591.116 633.958 593.428 634.766 596.985 636.026 601.787 637.286 606.59 638.312 609.98 639.104 611.959L639.323 611.959C639.948 610.584 640.542 608.798 641.104 606.6 641.667 604.402 642.125 602.09 642.479 599.662 642.833 597.235 643.01 595.011 643.01 592.991 643.01 592.72 643.026 592.527 643.057 592.412 643.089 592.298 643.177 592.147 643.323 591.959 644.302 590.751 645.646 589.511 647.354 588.241 647.646 588.032 647.917 587.928 648.167 587.928 648.458 587.928 648.729 588.032 648.979 588.241 650.646 589.47 651.99 590.709 653.01 591.959 653.156 592.147 653.245 592.303 653.276 592.428 653.307 592.553 653.323 592.741 653.323 592.991 653.323 594.595 652.849 597.105 651.901 600.522 650.953 603.938 649.807 607.36 648.464 610.787 647.12 614.214 645.917 616.741 644.854 618.366 644.375 619.095 643.995 619.605 643.714 619.897 643.432 620.188 643.073 620.386 642.635 620.491 642.198 620.595 641.531 620.647 640.635 620.647L637.104 620.647C636.062 620.647 635.276 620.501 634.745 620.209 634.214 619.918 633.719 619.303 633.26 618.366 632.719 617.303 631.953 614.975 630.964 611.381 629.974 607.787 629.354 605.241 629.104 603.741 628.979 603.032 628.859 602.246 628.745 601.381 628.63 600.517 628.562 599.834 628.542 599.334L628.385 599.334C628.365 599.834 628.297 600.522 628.182 601.397 628.068 602.272 627.948 603.063 627.823 603.772 627.552 605.168 626.891 607.501 625.839 610.772 624.786 614.043 623.844 616.574 623.01 618.366 622.698 619.011 622.37 619.496 622.026 619.819 621.682 620.142 621.25 620.36 620.729 620.475 620.208 620.589 619.5 620.647 618.604 620.647L614.979 620.647C614.292 620.647 613.771 620.584 613.417 620.459 613.062 620.334 612.766 620.131 612.526 619.85 612.286 619.569 611.938 619.074 611.479 618.366 610.521 616.866 609.438 614.402 608.229 610.975 607.021 607.548 605.99 604.09 605.135 600.6 604.281 597.11 603.854 594.553 603.854 592.928 603.854 592.678 603.87 592.501 603.901 592.397 603.932 592.293 604.031 592.147 604.198 591.959 605.156 590.772 606.521 589.532 608.292 588.241 608.458 588.116 608.604 588.032 608.729 587.991 608.854 587.949 608.99 587.928 609.135 587.928ZM518.51 587.928C518.781 587.928 519.062 588.032 519.354 588.241 521.083 589.491 522.448 590.73 523.448 591.959 523.594 592.147 523.688 592.298 523.729 592.412 523.771 592.527 523.792 592.709 523.792 592.959 523.792 594.334 524.036 596.136 524.526 598.366 525.016 600.595 525.698 602.928 526.573 605.366 527.448 607.803 528.427 610.001 529.51 611.959L529.667 611.959C530.854 610.043 531.891 607.86 532.776 605.412 533.661 602.965 534.344 600.616 534.823 598.366 535.302 596.116 535.542 594.324 535.542 592.991 535.542 592.72 535.557 592.527 535.589 592.412 535.62 592.298 535.708 592.147 535.854 591.959 536.833 590.751 538.177 589.511 539.885 588.241 540.177 588.032 540.448 587.928 540.698 587.928 540.99 587.928 541.26 588.032 541.51 588.241 543.177 589.47 544.521 590.709 545.542 591.959 545.688 592.147 545.776 592.303 545.807 592.428 545.839 592.553 545.854 592.741 545.854 592.991 545.854 594.449 545.365 596.715 544.385 599.787 543.406 602.86 542.151 606.063 540.62 609.397 539.089 612.73 537.542 615.511 535.979 617.741 535.417 618.553 534.948 619.147 534.573 619.522 534.198 619.897 533.74 620.178 533.198 620.366 532.656 620.553 531.917 620.647 530.979 620.647L527.667 620.647C526.667 620.647 525.891 620.558 525.339 620.381 524.786 620.204 524.328 619.928 523.964 619.553 523.599 619.178 523.156 618.574 522.635 617.741 521.156 615.407 519.688 612.569 518.229 609.225 516.771 605.881 515.573 602.694 514.635 599.662 513.698 596.631 513.229 594.397 513.229 592.959 513.229 592.709 513.245 592.527 513.276 592.412 513.307 592.298 513.406 592.147 513.573 591.959 514.531 590.772 515.896 589.532 517.667 588.241 517.833 588.116 517.979 588.032 518.104 587.991 518.229 587.949 518.365 587.928 518.51 587.928ZM897.167 587.866C900.229 587.866 902.865 588.423 905.073 589.537 907.281 590.652 908.958 592.199 910.104 594.178 911.25 596.157 911.823 598.428 911.823 600.991 911.823 603.407 911.208 605.121 909.979 606.131 908.75 607.142 906.875 607.647 904.354 607.647L890.948 607.647C891.094 609.772 891.87 611.402 893.276 612.537 894.682 613.673 896.604 614.241 899.042 614.241 901.708 614.241 904.052 613.501 906.073 612.022 906.302 611.855 906.49 611.746 906.635 611.694 906.781 611.642 906.958 611.616 907.167 611.616 907.646 611.616 908.276 611.699 909.057 611.866 909.839 612.032 910.594 612.313 911.323 612.709 911.844 612.98 912.104 613.355 912.104 613.834 912.104 614.105 912.052 614.491 911.948 614.991 911.698 616.136 911.406 617.074 911.073 617.803 910.99 617.949 910.906 618.069 910.823 618.162 910.74 618.256 910.625 618.355 910.479 618.459 907.75 620.438 903.781 621.428 898.573 621.428 893.094 621.428 888.823 620.089 885.76 617.412 882.698 614.735 881.167 610.647 881.167 605.147 881.167 601.418 881.823 598.261 883.135 595.678 884.448 593.095 886.302 591.147 888.698 589.834 891.094 588.522 893.917 587.866 897.167 587.866ZM867.823 587.866C869.969 587.866 871.635 588.032 872.823 588.366 874.01 588.699 874.854 589.053 875.354 589.428 875.812 589.72 876.167 590.095 876.417 590.553 876.583 590.824 876.755 591.246 876.932 591.819 877.109 592.392 877.24 592.98 877.323 593.584 877.385 593.897 877.417 594.136 877.417 594.303 877.417 594.553 877.359 594.756 877.245 594.912 877.13 595.069 876.906 595.261 876.573 595.491 876.094 595.803 875.557 596.095 874.964 596.366 874.37 596.636 873.875 596.824 873.479 596.928 873.271 596.991 873.104 597.022 872.979 597.022 872.854 597.022 872.719 596.985 872.573 596.912 872.427 596.84 872.26 596.741 872.073 596.616 871.552 596.261 871.005 595.975 870.432 595.756 869.859 595.537 869.104 595.428 868.167 595.428 866.771 595.428 865.464 595.772 864.245 596.459 863.026 597.147 862.047 598.173 861.307 599.537 860.568 600.902 860.198 602.532 860.198 604.428 860.198 606.407 860.552 608.105 861.26 609.522 861.969 610.938 862.974 612.017 864.276 612.756 865.578 613.496 867.115 613.866 868.885 613.866 871.031 613.866 872.865 613.438 874.385 612.584 874.656 612.438 874.896 612.366 875.104 612.366 875.438 612.366 875.688 612.584 875.854 613.022L878.135 618.178C878.198 618.303 878.229 618.438 878.229 618.584 878.229 618.918 878.073 619.168 877.76 619.334 876.74 619.876 875.333 620.36 873.542 620.787 871.75 621.214 869.698 621.428 867.385 621.428 863.865 621.428 860.812 620.803 858.229 619.553 855.646 618.303 853.656 616.433 852.26 613.944 850.865 611.454 850.167 608.397 850.167 604.772 850.167 601.272 850.885 598.251 852.323 595.709 853.76 593.168 855.807 591.225 858.464 589.881 861.12 588.537 864.24 587.866 867.823 587.866ZM829.479 587.866C834.188 587.866 837.703 589.001 840.026 591.272 842.349 593.543 843.51 596.959 843.51 601.522L843.51 619.209C843.51 619.647 843.396 619.996 843.167 620.256 842.938 620.517 842.573 620.647 842.073 620.647L837.385 620.647C837.01 620.647 836.698 620.6 836.448 620.506 836.198 620.412 835.969 620.23 835.76 619.959L833.823 617.459 833.604 617.459C831.771 620.105 828.625 621.428 824.167 621.428 822.125 621.428 820.354 621.043 818.854 620.272 817.354 619.501 816.198 618.386 815.385 616.928 814.573 615.47 814.167 613.741 814.167 611.741 814.167 609.47 814.729 607.522 815.854 605.897 816.979 604.272 818.99 602.959 821.885 601.959 824.781 600.959 828.781 600.386 833.885 600.241 833.885 598.386 833.417 597.032 832.479 596.178 831.542 595.324 830.115 594.897 828.198 594.897 826.74 594.897 825.49 595.126 824.448 595.584 823.406 596.043 822.583 596.501 821.979 596.959 821.812 597.105 821.651 597.199 821.495 597.241 821.339 597.282 821.146 597.282 820.917 597.241 820.417 597.178 819.901 597.058 819.37 596.881 818.839 596.704 818.073 596.438 817.073 596.084 816.719 595.938 816.531 595.73 816.51 595.459 816.51 595.188 816.573 594.772 816.698 594.209 816.781 593.73 816.906 593.194 817.073 592.6 817.24 592.006 817.396 591.553 817.542 591.241 817.646 591.032 817.766 590.86 817.901 590.725 818.036 590.59 818.229 590.428 818.479 590.241 818.812 589.97 819.438 589.652 820.354 589.287 821.271 588.923 822.505 588.595 824.057 588.303 825.609 588.011 827.417 587.866 829.479 587.866ZM673.167 587.866C676.229 587.866 678.865 588.423 681.073 589.537 683.281 590.652 684.958 592.199 686.104 594.178 687.25 596.157 687.823 598.428 687.823 600.991 687.823 603.407 687.208 605.121 685.979 606.131 684.75 607.142 682.875 607.647 680.354 607.647L666.948 607.647C667.094 609.772 667.87 611.402 669.276 612.537 670.682 613.673 672.604 614.241 675.042 614.241 677.708 614.241 680.052 613.501 682.073 612.022 682.302 611.855 682.49 611.746 682.635 611.694 682.781 611.642 682.958 611.616 683.167 611.616 683.646 611.616 684.276 611.699 685.057 611.866 685.839 612.032 686.594 612.313 687.323 612.709 687.844 612.98 688.104 613.355 688.104 613.834 688.104 614.105 688.052 614.491 687.948 614.991 687.698 616.136 687.406 617.074 687.073 617.803 686.99 617.949 686.906 618.069 686.823 618.162 686.74 618.256 686.625 618.355 686.479 618.459 683.75 620.438 679.781 621.428 674.573 621.428 669.094 621.428 664.823 620.089 661.76 617.412 658.698 614.735 657.167 610.647 657.167 605.147 657.167 601.418 657.823 598.261 659.135 595.678 660.448 593.095 662.302 591.147 664.698 589.834 667.094 588.522 669.917 587.866 673.167 587.866ZM584.167 587.866C587.229 587.866 589.865 588.423 592.073 589.537 594.281 590.652 595.958 592.199 597.104 594.178 598.25 596.157 598.823 598.428 598.823 600.991 598.823 603.407 598.208 605.121 596.979 606.131 595.75 607.142 593.875 607.647 591.354 607.647L577.948 607.647C578.094 609.772 578.87 611.402 580.276 612.537 581.682 613.673 583.604 614.241 586.042 614.241 588.708 614.241 591.052 613.501 593.073 612.022 593.302 611.855 593.49 611.746 593.635 611.694 593.781 611.642 593.958 611.616 594.167 611.616 594.646 611.616 595.276 611.699 596.057 611.866 596.839 612.032 597.594 612.313 598.323 612.709 598.844 612.98 599.104 613.355 599.104 613.834 599.104 614.105 599.052 614.491 598.948 614.991 598.698 616.136 598.406 617.074 598.073 617.803 597.99 617.949 597.906 618.069 597.823 618.162 597.74 618.256 597.625 618.355 597.479 618.459 594.75 620.438 590.781 621.428 585.573 621.428 580.094 621.428 575.823 620.089 572.76 617.412 569.698 614.735 568.167 610.647 568.167 605.147 568.167 601.418 568.823 598.261 570.135 595.678 571.448 593.095 573.302 591.147 575.698 589.834 578.094 588.522 580.917 587.866 584.167 587.866ZM493.479 587.866C498.188 587.866 501.703 589.001 504.026 591.272 506.349 593.543 507.51 596.959 507.51 601.522L507.51 619.209C507.51 619.647 507.396 619.996 507.167 620.256 506.938 620.517 506.573 620.647 506.073 620.647L501.385 620.647C501.01 620.647 500.698 620.6 500.448 620.506 500.198 620.412 499.969 620.23 499.76 619.959L497.823 617.459 497.604 617.459C495.771 620.105 492.625 621.428 488.167 621.428 486.125 621.428 484.354 621.043 482.854 620.272 481.354 619.501 480.198 618.386 479.385 616.928 478.573 615.47 478.167 613.741 478.167 611.741 478.167 609.47 478.729 607.522 479.854 605.897 480.979 604.272 482.99 602.959 485.885 601.959 488.781 600.959 492.781 600.386 497.885 600.241 497.885 598.386 497.417 597.032 496.479 596.178 495.542 595.324 494.115 594.897 492.198 594.897 490.74 594.897 489.49 595.126 488.448 595.584 487.406 596.043 486.583 596.501 485.979 596.959 485.812 597.105 485.651 597.199 485.495 597.241 485.339 597.282 485.146 597.282 484.917 597.241 484.417 597.178 483.901 597.058 483.37 596.881 482.839 596.704 482.073 596.438 481.073 596.084 480.719 595.938 480.531 595.73 480.51 595.459 480.51 595.188 480.573 594.772 480.698 594.209 480.781 593.73 480.906 593.194 481.073 592.6 481.24 592.006 481.396 591.553 481.542 591.241 481.646 591.032 481.766 590.86 481.901 590.725 482.036 590.59 482.229 590.428 482.479 590.241 482.812 589.97 483.438 589.652 484.354 589.287 485.271 588.923 486.505 588.595 488.057 588.303 489.609 588.011 491.417 587.866 493.479 587.866ZM431.479 587.866C436.188 587.866 439.703 589.001 442.026 591.272 444.349 593.543 445.51 596.959 445.51 601.522L445.51 619.209C445.51 619.647 445.396 619.996 445.167 620.256 444.938 620.517 444.573 620.647 444.073 620.647L439.385 620.647C439.01 620.647 438.698 620.6 438.448 620.506 438.198 620.412 437.969 620.23 437.76 619.959L435.823 617.459 435.604 617.459C433.771 620.105 430.625 621.428 426.167 621.428 424.125 621.428 422.354 621.043 420.854 620.272 419.354 619.501 418.198 618.386 417.385 616.928 416.573 615.47 416.167 613.741 416.167 611.741 416.167 609.47 416.729 607.522 417.854 605.897 418.979 604.272 420.99 602.959 423.885 601.959 426.781 600.959 430.781 600.386 435.885 600.241 435.885 598.386 435.417 597.032 434.479 596.178 433.542 595.324 432.115 594.897 430.198 594.897 428.74 594.897 427.49 595.126 426.448 595.584 425.406 596.043 424.583 596.501 423.979 596.959 423.812 597.105 423.651 597.199 423.495 597.241 423.339 597.282 423.146 597.282 422.917 597.241 422.417 597.178 421.901 597.058 421.37 596.881 420.839 596.704 420.073 596.438 419.073 596.084 418.719 595.938 418.531 595.73 418.51 595.459 418.51 595.188 418.573 594.772 418.698 594.209 418.781 593.73 418.906 593.194 419.073 592.6 419.24 592.006 419.396 591.553 419.542 591.241 419.646 591.032 419.766 590.86 419.901 590.725 420.036 590.59 420.229 590.428 420.479 590.241 420.812 589.97 421.438 589.652 422.354 589.287 423.271 588.923 424.505 588.595 426.057 588.303 427.609 588.011 429.417 587.866 431.479 587.866ZM780.885 587.616C781.052 587.616 781.193 587.636 781.307 587.678 781.422 587.72 781.562 587.803 781.729 587.928 783.354 589.199 784.656 590.501 785.635 591.834L785.792 591.834C786.646 590.772 787.818 589.845 789.307 589.053 790.797 588.261 792.958 587.866 795.792 587.866 798.75 587.866 801.229 588.537 803.229 589.881 805.229 591.225 806.719 593.084 807.698 595.459 808.677 597.834 809.167 600.595 809.167 603.741 809.167 607.116 808.594 610.142 807.448 612.819 806.302 615.496 804.604 617.6 802.354 619.131 800.104 620.662 797.396 621.428 794.229 621.428 792 621.428 790.255 621.1 788.995 620.444 787.734 619.787 786.698 618.98 785.885 618.022L785.76 618.022 785.76 631.334C785.76 631.668 785.745 631.897 785.714 632.022 785.682 632.147 785.594 632.303 785.448 632.491 784.573 633.636 783.292 634.876 781.604 636.209 781.312 636.418 781.052 636.522 780.823 636.522 780.573 636.522 780.312 636.418 780.042 636.209 778.396 634.938 777.115 633.699 776.198 632.491 776.052 632.303 775.964 632.142 775.932 632.006 775.901 631.871 775.885 631.647 775.885 631.334L775.885 592.803C775.885 592.491 775.901 592.267 775.932 592.131 775.964 591.996 776.052 591.834 776.198 591.647 777.115 590.438 778.396 589.199 780.042 587.928 780.312 587.72 780.594 587.616 780.885 587.616ZM699.979 587.616C700.271 587.616 700.562 587.72 700.854 587.928 702.583 589.282 703.792 590.438 704.479 591.397 704.667 591.647 704.76 591.938 704.76 592.272L704.76 594.584 704.885 594.584C706.448 590.251 709.26 588.084 713.323 588.084 714.24 588.084 714.896 588.157 715.292 588.303 715.458 588.366 715.578 588.444 715.651 588.537 715.724 588.631 715.76 588.793 715.76 589.022L715.76 596.553C715.76 596.991 715.573 597.209 715.198 597.209 715.01 597.209 714.823 597.168 714.635 597.084 713.74 596.751 712.729 596.584 711.604 596.584 709.479 596.584 707.807 597.371 706.589 598.944 705.37 600.517 704.76 602.657 704.76 605.366L704.76 618.991C704.76 619.616 704.63 620.048 704.37 620.287 704.109 620.527 703.667 620.647 703.042 620.647L696.604 620.647C695.979 620.647 695.536 620.527 695.276 620.287 695.016 620.048 694.885 619.616 694.885 618.991L694.885 592.803C694.885 592.491 694.901 592.267 694.932 592.131 694.964 591.996 695.052 591.834 695.198 591.647 696.115 590.438 697.396 589.199 699.042 587.928 699.312 587.72 699.625 587.616 699.979 587.616ZM384.323 584.053C382.969 584.053 382.036 584.34 381.526 584.912 381.016 585.485 380.76 586.491 380.76 587.928L380.76 608.553C380.76 609.991 381.016 611.001 381.526 611.584 382.036 612.168 382.969 612.459 384.323 612.459L385.76 612.459C390.406 612.459 393.906 611.324 396.26 609.053 398.615 606.782 399.792 603.032 399.792 597.803 399.792 594.303 399.25 591.548 398.167 589.537 397.083 587.527 395.516 586.11 393.464 585.287 391.411 584.465 388.823 584.053 385.698 584.053ZM461.042 578.428C461.292 578.428 461.542 578.532 461.792 578.741 463.438 580.011 464.719 581.251 465.635 582.459 465.781 582.647 465.87 582.808 465.901 582.944 465.932 583.079 465.948 583.303 465.948 583.616L465.948 588.647 471.479 588.647C472.104 588.647 472.536 588.777 472.776 589.037 473.016 589.298 473.135 589.741 473.135 590.366L473.135 594.209C473.135 594.834 473.016 595.277 472.776 595.537 472.536 595.798 472.104 595.928 471.479 595.928L465.948 595.928 465.948 608.866C465.948 610.511 466.26 611.756 466.885 612.6 467.51 613.444 468.406 613.866 469.573 613.866 470.24 613.866 470.854 613.751 471.417 613.522 471.812 613.376 472.073 613.303 472.198 613.303 472.344 613.303 472.458 613.36 472.542 613.475 472.625 613.589 472.719 613.772 472.823 614.022L474.635 618.866C474.719 619.116 474.76 619.282 474.76 619.366 474.76 619.636 474.594 619.845 474.26 619.991 473.448 620.366 472.474 620.699 471.339 620.991 470.203 621.282 468.604 621.428 466.542 621.428 459.583 621.428 456.104 617.813 456.104 610.584L456.104 595.928 452.573 595.928C451.948 595.928 451.516 595.798 451.276 595.537 451.036 595.277 450.917 594.834 450.917 594.209L450.917 590.366C450.917 589.741 451.036 589.298 451.276 589.037 451.516 588.777 451.948 588.647 452.573 588.647L456.104 588.647 456.104 583.616C456.104 583.282 456.12 583.053 456.151 582.928 456.182 582.803 456.271 582.647 456.417 582.459 457.292 581.313 458.573 580.074 460.26 578.741 460.552 578.532 460.812 578.428 461.042 578.428ZM378.385 575.834 387.979 575.834C392.688 575.834 396.693 576.522 399.995 577.897 403.297 579.272 405.859 581.574 407.682 584.803 409.505 588.032 410.417 592.324 410.417 597.678 410.417 605.636 408.448 611.454 404.51 615.131 400.573 618.808 395.062 620.647 387.979 620.647L378.385 620.647C376.24 620.647 374.62 620.376 373.526 619.834 372.432 619.293 371.682 618.438 371.276 617.272 370.87 616.105 370.667 614.438 370.667 612.272L370.667 584.209C370.667 582.001 370.865 580.313 371.26 579.147 371.656 577.98 372.401 577.136 373.495 576.616 374.589 576.095 376.219 575.834 378.385 575.834ZM754.51 575.147C756.802 575.147 758.786 575.423 760.464 575.975 762.141 576.527 763.458 577.157 764.417 577.866 765.375 578.574 766.042 579.23 766.417 579.834 766.583 580.084 766.688 580.277 766.729 580.412 766.771 580.548 766.812 580.741 766.854 580.991 766.896 581.657 766.917 582.178 766.917 582.553 766.917 583.574 766.844 584.668 766.698 585.834 766.635 586.168 766.521 586.397 766.354 586.522 766.208 586.626 765.979 586.678 765.667 586.678 763.646 586.72 762.083 586.616 760.979 586.366 760.583 586.282 760.307 586.194 760.151 586.1 759.995 586.006 759.792 585.824 759.542 585.553 758.979 584.928 758.344 584.407 757.635 583.991 756.927 583.574 755.885 583.366 754.51 583.366 752.469 583.366 750.953 583.829 749.964 584.756 748.974 585.683 748.479 586.824 748.479 588.178 748.479 589.136 748.766 589.949 749.339 590.616 749.911 591.282 750.776 591.886 751.932 592.428 753.089 592.97 754.75 593.626 756.917 594.397 759.646 595.355 761.828 596.329 763.464 597.319 765.099 598.308 766.365 599.59 767.26 601.162 768.156 602.735 768.604 604.751 768.604 607.209 768.604 610.313 767.885 612.928 766.448 615.053 765.01 617.178 763.026 618.767 760.495 619.819 757.964 620.871 755.062 621.397 751.792 621.397 748.208 621.397 745.375 620.954 743.292 620.069 741.208 619.183 739.646 618.074 738.604 616.741 738.375 616.407 738.198 616.126 738.073 615.897 737.948 615.668 737.854 615.407 737.792 615.116 737.583 614.011 737.479 613.001 737.479 612.084 737.479 611.668 737.49 611.345 737.51 611.116 737.51 610.949 737.526 610.803 737.557 610.678 737.589 610.553 737.646 610.438 737.729 610.334 737.875 610.168 738.115 610.043 738.448 609.959 739.01 609.834 739.781 609.709 740.76 609.584 741.74 609.459 742.448 609.397 742.885 609.397 743.302 609.397 743.646 609.475 743.917 609.631 744.188 609.787 744.521 610.074 744.917 610.491 745.583 611.199 746.432 611.824 747.464 612.366 748.495 612.907 749.938 613.178 751.792 613.178 753.812 613.178 755.349 612.756 756.401 611.912 757.453 611.069 757.979 609.876 757.979 608.334 757.979 607.48 757.724 606.699 757.214 605.991 756.703 605.282 755.797 604.574 754.495 603.866 753.193 603.157 751.375 602.407 749.042 601.616 746.333 600.72 744.172 599.694 742.557 598.537 740.943 597.381 739.755 595.991 738.995 594.366 738.234 592.741 737.854 590.751 737.854 588.397 737.854 585.563 738.552 583.152 739.948 581.162 741.344 579.173 743.292 577.673 745.792 576.662 748.292 575.652 751.198 575.147 754.51 575.147ZM555.854 571.772C556 571.772 556.151 571.813 556.307 571.897 556.464 571.98 556.698 572.136 557.01 572.366 558.698 573.824 560.135 575.241 561.323 576.616 561.406 576.699 561.542 576.85 561.729 577.069 561.917 577.287 562.052 577.48 562.135 577.647 562.219 577.813 562.26 577.98 562.26 578.147 562.26 578.334 562.214 578.511 562.12 578.678 562.026 578.845 561.891 579.027 561.714 579.225 561.536 579.423 561.396 579.584 561.292 579.709 560.188 581.001 558.76 582.397 557.01 583.897 556.531 584.293 556.146 584.491 555.854 584.491 555.708 584.491 555.552 584.449 555.385 584.366 555.219 584.282 554.979 584.126 554.667 583.897 553.167 582.709 551.729 581.293 550.354 579.647 550.292 579.563 550.161 579.412 549.964 579.194 549.766 578.975 549.63 578.787 549.557 578.631 549.484 578.475 549.448 578.313 549.448 578.147 549.448 577.918 549.505 577.715 549.62 577.537 549.734 577.36 549.979 577.053 550.354 576.616 551.417 575.386 552.875 573.97 554.729 572.366 555.021 572.136 555.245 571.98 555.401 571.897 555.557 571.813 555.708 571.772 555.854 571.772Z" fill="url(#fill4)" fill-rule="evenodd"/><text fill="#000000" fill-opacity="0" font-family="Arial,Arial_MSFontService,sans-serif" font-size="64.75" x="370.667" y="628.428">Dataviewer.Space</text></g></svg>