<svg width="7249.999999999999" height="960"
    xmlns="http://www.w3.org/2000/svg" class="h-6 mr-2">
    <defs>
        <radialGradient cx="3738028" cy="-318558" r="6450929" fx="3738028" fy="-318558" gradientUnits="userSpaceOnUse" spreadMethod="pad" id="fill1" gradientTransform="matrix(0.000104987 0 0 0.000104987 87 514)">
            <stop offset="0" stop-color="#F9EFA0"/>
            <stop offset="0.06" stop-color="#F9EFA0"/>
            <stop offset="0.39" stop-color="#BA8A48"/>
            <stop offset="1" stop-color="#BA8A48"/>
        </radialGradient>
        <radialGradient cx="-961897" cy="2013835" r="6458902" fx="-961897" fy="2013835" gradientUnits="userSpaceOnUse" spreadMethod="pad" id="fill2" gradientTransform="matrix(0.000104987 0 0 0.000104987 582 269)">
            <stop offset="0" stop-color="#F9EFA0"/>
            <stop offset="0.06" stop-color="#F9EFA0"/>
            <stop offset="0.39" stop-color="#BA8A48"/>
            <stop offset="1" stop-color="#BA8A48"/>
        </radialGradient>
        <radialGradient cx="3560120" cy="3745532" r="6463876" fx="3560120" fy="3745532" gradientUnits="userSpaceOnUse" spreadMethod="pad" id="fill3" gradientTransform="matrix(0.000104987 0 0 0.000104987 106 87)">
            <stop offset="0" stop-color="#F9EFA0"/>
            <stop offset="0.06" stop-color="#F9EFA0"/>
            <stop offset="0.39" stop-color="#BA8A48"/>
            <stop offset="1" stop-color="#BA8A48"/>
        </radialGradient>
        <linearGradient id="grad1" x1="0%" x2="100%" y1="0%" y2="0%">
            <stop offset="0%" stop-color="rgb(249, 239, 160)" />
            <stop offset="80%" stop-color="rgb(186, 138, 72)" />
        </linearGradient>
    </defs>
    <g>
        <title>Layer 1</title>
        <g id="svg_1">
            <path fill="url(#fill1)" fill-rule="evenodd" d="m95.73,873.02c-2.23,0 -4.47,-0.86 -6.17,-2.56c-3.41,-3.41 -3.41,-8.92 0,-12.33l341.55,-341.56c3.41,-3.41 8.92,-3.41 12.33,0c3.41,3.41 3.41,8.92 0,12.33l-341.55,341.56c-1.7,1.7 -3.93,2.56 -6.17,2.56l0.01,0z" id="svg_2"/>
            <path fill="url(#fill2)" fill-rule="evenodd" d="m638.53,383.01c-15.09,0 -29.28,-5.93 -39.96,-16.7c-10.68,-10.76 -16.55,-25.07 -16.55,-40.3c0,-15.23 5.88,-29.54 16.55,-40.3l0,0l0,0c10.68,-10.77 24.86,-16.7 39.96,-16.7c15.1,0 29.29,5.93 39.97,16.7c22.03,22.23 22.03,58.39 0,80.61c-10.68,10.77 -24.87,16.7 -39.97,16.7m0,-96.45c-10.45,0 -20.27,4.1 -27.66,11.56l0,0c-7.4,7.45 -11.46,17.36 -11.46,27.9c0,10.54 4.07,20.45 11.46,27.9c7.39,7.45 17.21,11.56 27.66,11.56c10.46,0 20.27,-4.1 27.67,-11.56c15.25,-15.38 15.25,-40.42 0,-55.81c-7.4,-7.46 -17.22,-11.56 -27.67,-11.56l0,0.01z" id="svg_3"/>
            <path d="m645.931,543.651c139.421,-162.221 215.778,-304.964 226.954,-424.252c0.822,-8.8 -2.298,-17.442 -8.555,-23.6988c-6.256,-6.2566 -14.864,-9.3851 -23.707,-8.555c-119.288,11.1678 -262.039,87.5768 -424.276,227.0158l-162.911,-4.133c-23.987,-0.786 -47.231,8.73 -64.105,25.612l-74.267,74.269c-7.856,7.855 -10.845,18.962 -7.987,29.702c2.857,10.739 10.975,18.892 21.758,21.811l197.427,52.151c0.743,0.192 1.495,0.288 2.237,0.288c3.872,0 7.411,-2.586 8.442,-6.501c1.232,-4.667 -1.547,-9.455 -6.213,-10.687l-197.366,-52.134c-4.64,-1.258 -8.153,-4.78 -9.385,-9.429c-1.241,-4.64 0.052,-9.446 3.451,-12.845l74.268,-74.268c13.51,-13.51 32.219,-20.955 51.312,-20.501l166.266,4.212c0.472,0.009 0.9,-0.183 1.354,-0.253c0.621,-0.079 1.233,-0.131 1.827,-0.341c0.315,-0.122 0.568,-0.332 0.865,-0.481c0.638,-0.314 1.311,-0.568 1.879,-1.048c160.49,-138.443 300.82,-214.162 417.049,-225.041c3.583,-0.324 7.148,0.943 9.709,3.512c2.569,2.561 3.845,6.109 3.504,9.709c-10.81,115.609 -85.776,255.066 -222.804,414.499c-0.375,0.437 -0.533,0.961 -0.803,1.442c-2.159,1.643 -3.627,4.142 -3.557,7.061l4.203,166.258c0.49,19.11 -6.982,37.802 -20.491,51.303l-74.268,74.268c-3.399,3.399 -8.179,4.684 -12.846,3.46c-4.649,-1.241 -8.17,-4.745 -9.428,-9.385l-54.065,-199.35c-1.267,-4.649 -6.047,-7.445 -10.722,-6.143c-4.658,1.267 -7.41,6.056 -6.152,10.722l54.073,199.35c2.902,10.731 11.055,18.832 21.785,21.698c2.692,0.716 5.392,1.066 8.075,1.066c8.021,-0.009 15.746,-3.155 21.636,-9.053l74.268,-74.268c16.882,-16.865 26.206,-40.232 25.612,-64.105l-4.124,-162.885c0.034,-0.026 0.061,-0.035 0.078,-0.052z" fill="url(#fill3)" fill-rule="evenodd" id="svg_4"/>
        </g>
        <path fill="url(#grad1)" d="m1249.99994,273.74644l133.57621,0q83.70776,0 124.07746,53.43048q40.3697,53.43048 40.3697,153.76106q0,100.33057 -40.3697,153.76106q-40.3697,53.43048 -124.07746,53.43048l-133.57621,0l0,-414.38308m127.63949,344.32978q39.77603,0 58.17986,-25.5279q18.40383,-25.5279 18.40383,-74.20901l0,-75.39635q0,-48.08744 -18.40383,-73.61533q-18.40383,-25.5279 -58.17986,-25.5279l-39.77603,0l0,274.27648l39.77603,0zm479.68701,70.0533q-27.30891,0 -43.93173,-14.01066q-16.62282,-13.89193 -19.59118,-40.0135l-2.96836,0q-8.31141,30.27727 -32.88943,45.71275q-24.69676,15.43547 -60.31708,15.43547q-44.5254,0 -71.47811,-24.10308q-27.07145,-23.98435 -27.07145,-67.32241q0,-48.08744 35.02665,-71.24064q35.02665,-23.15321 102.70526,-23.15321l49.27478,0l0,-15.43547q0,-27.30891 -12.70458,-41.31957q-12.82332,-13.89193 -43.10059,-13.89193q-27.90259,0 -45.11908,10.6861q-17.21649,10.6861 -29.6836,27.90259l-48.08744,-42.74439q15.43547,-26.12157 48.3249,-43.10059q33.00817,-16.86029 84.65763,-16.86029q62.92924,0 98.31209,28.73373q35.26412,28.85246 35.26412,87.03232l0,134.16988l33.83931,0l0,63.52291l-50.46212,0m-126.45214,-50.46212q23.15321,0 39.18235,-11.27977q16.02915,-11.27977 16.02915,-32.65196l0,-36.80767l-46.90009,0q-54.02416,0 -54.02416,36.21399l0,11.87344q0,16.02915 12.46711,24.34055q12.46711,8.31141 33.24563,8.31141zm395.38558,50.46212q-47.49376,0 -70.64697,-24.93423q-23.15321,-24.93423 -23.15321,-63.52291l0,-149.60535l-83.11409,0l0,-68.27228l54.02416,0q19.59118,0 27.90259,-7.71774q8.31141,-7.71774 8.31141,-28.49626l0,-71.83432l80.7394,0l0,108.04831l119.32808,0l0,68.27228l-119.32808,0l0,169.7902l119.32808,0l0,68.27228l-113.39136,0zm443.47301,0q-27.30891,0 -43.93173,-14.01066q-16.62282,-13.89193 -19.59118,-40.0135l-2.96836,0q-8.31141,30.27727 -32.88943,45.71275q-24.69676,15.43547 -60.31708,15.43547q-44.5254,0 -71.59685,-24.10308q-26.95271,-23.98435 -26.95271,-67.32241q0,-48.08744 35.02665,-71.24064q35.02665,-23.15321 102.70526,-23.15321l49.27478,0l0,-15.43547q0,-27.30891 -12.70458,-41.31957q-12.82332,-13.89193 -43.10059,-13.89193q-27.90259,0 -45.11908,10.6861q-17.21649,10.6861 -29.6836,27.90259l-48.08744,-42.74439q15.43547,-26.12157 48.3249,-43.10059q33.00817,-16.86029 84.65763,-16.86029q62.92924,0 98.31209,28.73373q35.26412,28.85246 35.26412,87.03232l0,134.16988l33.83931,0l0,63.52291l-50.46212,0m-126.45214,-50.46212q23.15321,0 39.18235,-11.27977q16.02915,-11.27977 16.02915,-32.65196l0,-36.80767l-46.90009,0q-54.02416,0 -54.02416,36.21399l0,11.87344q0,16.02915 12.46711,24.34055q12.46711,8.31141 33.24563,8.31141zm319.39556,50.46212l-109.82933,-306.33477l92.61284,0l39.77603,131.20152l29.08993,102.11159l4.74938,0l29.08993,-102.11159l39.77603,-131.20152l89.05081,0l-109.82933,306.33477l-104.48628,0zm427.44387,-345.51713q-29.6836,0 -41.20084,-12.22964q-11.63597,-12.11091 -11.63597,-29.3274l0,-17.21649q0,-17.81016 11.63597,-29.6836q11.51724,-11.87344 41.20084,-11.87344q29.6836,0 41.31957,11.87344q11.51724,11.87344 11.51724,29.6836l0,17.21649q0,17.21649 -11.51724,29.3274q-11.63597,12.22964 -41.31957,12.22964m-141.29395,277.24484l97.36221,0l0,-169.7902l-97.36221,0l0,-68.27228l185.22568,0l0,238.06249l90.23815,0l0,68.27228l-275.46383,0l0,-68.27228zm486.81107,75.39635q-77.17737,0 -116.95339,-42.74439q-39.77603,-42.74439 -39.77603,-116.35972q0,-37.40134 10.44863,-67.44114q10.32989,-29.92107 29.6836,-51.0558q19.23497,-21.01599 46.90009,-32.05829q27.54638,-10.92357 61.97936,-10.92357q34.43298,0 61.74189,10.92357q27.30891,11.0423 46.30642,31.22715q18.99751,20.18485 29.44613,48.91858q10.32989,28.85246 10.32989,64.47278l0,26.12157l-209.56623,0l0,5.34305q0,29.6836 18.40383,47.73123q18.40383,18.16636 54.02416,18.16636q27.30891,0 46.90009,-10.44863q19.59118,-10.32989 33.83931,-27.54638l47.49376,51.64947q-17.81016,21.96587 -49.86845,37.99501q-32.05829,16.02915 -81.33307,16.02915m-7.12406,-257.65367q-28.49626,0 -45.35654,17.45396q-16.97902,17.57269 -16.97902,47.25629l0,4.74938l123.48378,0l0,-4.74938q0,-30.27727 -16.26661,-47.49376q-16.38535,-17.21649 -44.88161,-17.21649zm181.06997,-55.80517l73.02166,0l21.96587,248.15491l5.93672,0l36.21399,-248.15491l77.17737,0l35.62032,248.15491l5.93672,0l22.55954,-248.15491l69.45963,0l-36.21399,306.33477l-104.48628,0l-30.27727,-211.34725l-5.93672,0l-30.27727,211.34725l-104.48628,0l-36.21399,-306.33477zm538.46054,313.45884q-77.17737,0 -116.95339,-42.74439q-39.77603,-42.74439 -39.77603,-116.35972q0,-37.40134 10.44863,-67.44114q10.32989,-29.92107 29.6836,-51.0558q19.23497,-21.01599 46.90009,-32.05829q27.54638,-10.92357 61.97936,-10.92357q34.43298,0 61.74189,10.92357q27.30891,11.0423 46.30642,31.22715q18.99751,20.18485 29.44613,48.91858q10.32989,28.85246 10.32989,64.47278l0,26.12157l-209.56623,0l0,5.34305q0,29.6836 18.40383,47.73123q18.40383,18.16636 54.02416,18.16636q27.30891,0 46.90009,-10.44863q19.59118,-10.32989 33.83931,-27.54638l47.49376,51.64947q-17.81016,21.96587 -49.86845,37.99501q-32.05829,16.02915 -81.33307,16.02915m-7.12406,-257.65367q-28.49626,0 -45.35654,17.45396q-16.97902,17.57269 -16.97902,47.25629l0,4.74938l123.48378,0l0,-4.74938q0,-30.27727 -16.26661,-47.49376q-16.38535,-17.21649 -44.88161,-17.21649zm220.846,182.25732l70.64697,0l0,-169.7902l-70.64697,0l0,-68.27228l158.51043,0l0,86.67612l4.1557,0q4.1557,-16.62282 11.63597,-32.41449q7.36153,-15.67294 18.99751,-27.90259q11.51724,-12.11091 28.14005,-19.23497q16.62282,-7.12406 39.18235,-7.12406l29.08993,0l0,80.7394l-65.30392,0q-32.65196,0 -49.27478,19.23497q-16.62282,19.35371 -16.62282,47.25629l0,90.83182l100.92425,0l0,68.27228l-259.43468,0l0,-68.27228zm490.37311,75.39635q-33.24563,0 -47.73123,-14.60433q-14.60433,-14.4856 -14.60433,-34.67045l0,-20.77852q0,-20.18485 14.60433,-34.78918q14.4856,-14.4856 47.73123,-14.4856q33.24563,0 47.73123,14.4856q14.60433,14.60433 14.60433,34.78918l0,20.77852q0,20.18485 -14.60433,34.67045q-14.4856,14.60433 -47.73123,14.60433zm349.67283,0q-52.24314,0 -90.83182,-17.21649q-38.58868,-17.21649 -62.33556,-46.90009l51.64947,-56.99252q22.55954,24.93423 49.63098,36.80767q26.95271,11.87344 54.8553,11.87344q32.05829,0 48.68111,-14.24813q16.62282,-14.24813 16.62282,-40.96337q0,-21.96587 -12.70458,-33.24563q-12.82332,-11.27977 -43.10059,-16.02915l-43.33806,-7.12406q-55.80517,-9.49875 -80.7394,-41.31957q-24.93423,-31.70209 -24.93423,-77.41483q0,-59.96088 39.18235,-92.96904q39.18235,-32.88943 109.82933,-32.88943q48.08744,0 83.70776,14.8418q35.62032,14.8418 57.58619,40.3697l-50.46212,56.39884q-16.62282,-18.40383 -39.18235,-28.85246q-22.55954,-10.32989 -51.0558,-10.32989q-59.96088,0 -59.96088,49.27478q0,21.37219 13.41699,32.05829q13.29825,10.6861 43.57553,16.02915l43.33806,7.71774q50.46212,8.90508 77.77104,37.99501q27.30891,29.08993 27.30891,78.36471q0,29.08993 -10.09242,53.66795q-10.09242,24.69676 -30.27727,42.74439q-20.18485,18.16636 -49.51225,28.25879q-29.44613,10.09242 -68.62849,10.09242zm219.65866,-313.45884l87.86346,0l0,55.80517l4.1557,0q11.27977,-27.30891 32.65196,-45.11908q21.37219,-17.81016 58.17986,-17.81016q25.5279,0 46.54389,9.49875q21.13472,9.49875 36.33273,29.08993q15.07927,19.59118 23.74688,49.86845q8.54888,30.27727 8.54888,71.83432q0,41.55704 -8.54888,71.83432q-8.66761,30.27727 -23.74688,49.86845q-15.198,19.59118 -36.33273,29.08993q-21.01599,9.49875 -46.54389,9.49875q-36.80767,0 -58.17986,-17.57269q-21.37219,-17.45396 -32.65196,-45.35654l-4.1557,0l0,174.53958l-87.86346,0l0,-425.06918m144.85598,245.18655q29.6836,0 45.71275,-18.16636q16.02915,-18.04763 16.02915,-50.10592l0,-47.49376q0,-32.05829 -16.02915,-50.22465q-16.02915,-18.04763 -45.71275,-18.04763q-23.15321,0 -40.13223,11.27977q-16.86029,11.27977 -16.86029,35.62032l0,90.23815q0,24.34055 16.86029,35.62032q16.97902,11.27977 40.13223,11.27977zm465.43888,61.14822q-27.30891,0 -43.93173,-14.01066q-16.62282,-13.89193 -19.59118,-40.0135l-2.96836,0q-8.31141,30.27727 -32.88943,45.71275q-24.69676,15.43547 -60.31708,15.43547q-44.5254,0 -71.47811,-24.10308q-27.07145,-23.98435 -27.07145,-67.32241q0,-48.08744 35.02665,-71.24064q35.02665,-23.15321 102.70526,-23.15321l49.27478,0l0,-15.43547q0,-27.30891 -12.82332,-41.31957q-12.70458,-13.89193 -42.98186,-13.89193q-27.90259,0 -45.11908,10.6861q-17.21649,10.6861 -29.6836,27.90259l-48.08744,-42.74439q15.43547,-26.12157 48.44364,-43.10059q32.88943,-16.86029 84.5389,-16.86029q62.92924,0 98.19336,28.73373q35.38285,28.85246 35.38285,87.03232l0,134.16988l33.83931,0l0,63.52291l-50.46212,0m-126.45214,-50.46212q23.15321,0 39.18235,-11.27977q16.02915,-11.27977 16.02915,-32.65196l0,-36.80767l-46.90009,0q-54.02416,0 -54.02416,36.21399l0,11.87344q0,16.02915 12.46711,24.34055q12.46711,8.31141 33.24563,8.31141zm384.10581,57.58619q-36.21399,0 -64.94772,-11.0423q-28.85246,-10.92357 -48.68111,-31.70209q-19.94738,-20.77852 -30.63348,-50.46212q-10.6861,-29.6836 -10.6861,-67.08494q0,-37.40134 10.6861,-67.08494q10.6861,-29.6836 30.63348,-50.46212q19.82865,-20.77852 48.68111,-31.82082q28.73373,-10.92357 64.35405,-10.92357q50.46212,0 81.0956,20.42232q30.51474,20.54105 46.54389,54.38036l-67.67861,36.80767q-8.31141,-17.81016 -21.60966,-29.6836q-13.41699,-11.87344 -38.35121,-11.87344q-30.27727,0 -46.54389,17.45396q-16.38535,17.57269 -16.38535,47.84997l0,49.86845q0,30.27727 16.38535,47.73123q16.26661,17.57269 47.73123,17.57269q25.5279,0 40.13223,-11.87344q14.4856,-11.87344 24.57802,-30.87095l66.49127,37.99501q-16.62282,33.83931 -48.3249,54.26162q-31.82082,20.54105 -83.47029,20.54105zm352.04752,0q-77.17737,0 -116.95339,-42.74439q-39.77603,-42.74439 -39.77603,-116.35972q0,-37.40134 10.44863,-67.44114q10.32989,-29.92107 29.6836,-51.0558q19.23497,-21.01599 46.90009,-32.05829q27.54638,-10.92357 61.97936,-10.92357q34.43298,0 61.74189,10.92357q27.30891,11.0423 46.30642,31.22715q18.99751,20.18485 29.44613,48.91858q10.32989,28.85246 10.32989,64.47278l0,26.12157l-209.56623,0l0,5.34305q0,29.6836 18.40383,47.73123q18.40383,18.16636 54.02416,18.16636q27.30891,0 46.90009,-10.44863q19.59118,-10.32989 33.83931,-27.54638l47.49376,51.64947q-17.81016,21.96587 -49.86845,37.99501q-32.05829,16.02915 -81.33307,16.02915m-7.12406,-257.65367q-28.49626,0 -45.47528,17.45396q-16.86029,17.57269 -16.86029,47.25629l0,4.74938l123.48378,0l0,-4.74938q0,-30.27727 -16.26661,-47.49376q-16.38535,-17.21649 -44.88161,-17.21649z" id="svg_5"/>
        <!-- <g fill="#000000" id="svg_8" transform="matrix(43.0402 0 0 43.0402 0 -407.37)" stroke="null">
            <path id="svg_7" stroke="null"/>
        </g> -->
    </g>
</svg>