<svg width="960" height="960" xmlns="http://www.w3.org/2000/svg" xmlns:xlink="http://www.w3.org/1999/xlink" overflow="hidden"><defs><radialGradient cx="4572000" cy="4572000" r="6465784" fx="4572000" fy="4572000" gradientUnits="userSpaceOnUse" spreadMethod="pad" id="fill0" gradientTransform="scale(0.000104987 0.000104987)"><stop offset="0" stop-color="#F9EFA0"/><stop offset="0.06" stop-color="#F9EFA0"/><stop offset="0.39" stop-color="#BA8A48"/><stop offset="1" stop-color="#BA8A48"/></radialGradient><radialGradient cx="2249064" cy="524226" r="6476488" fx="2249064" fy="524226" gradientUnits="userSpaceOnUse" spreadMethod="pad" id="fill1" gradientTransform="matrix(0.000104987 0 0 0.000104987 244 425)"><stop offset="0" stop-color="#F9EFA0"/><stop offset="0.06" stop-color="#F9EFA0"/><stop offset="0.39" stop-color="#BA8A48"/><stop offset="1" stop-color="#BA8A48"/></radialGradient><radialGradient cx="-578844" cy="1914887" r="6456916" fx="-578841" fy="1914884" gradientUnits="userSpaceOnUse" spreadMethod="pad" id="fill2" gradientTransform="matrix(0.000104987 0 0 0.000104987 541 279)"><stop offset="0" stop-color="#F9EFA0"/><stop offset="0.06" stop-color="#F9EFA0"/><stop offset="0.39" stop-color="#BA8A48"/><stop offset="1" stop-color="#BA8A48"/></radialGradient><radialGradient cx="2135144" cy="2961360" r="6468647" fx="2135144" fy="2961360" gradientUnits="userSpaceOnUse" spreadMethod="pad" id="fill3" gradientTransform="matrix(0.000104987 0 0 0.000104987 256 169)"><stop offset="0" stop-color="#F9EFA0"/><stop offset="0.06" stop-color="#F9EFA0"/><stop offset="0.39" stop-color="#BA8A48"/><stop offset="1" stop-color="#BA8A48"/></radialGradient><linearGradient x1="113.833" y1="794.462" x2="846.167" y2="794.462" gradientUnits="userSpaceOnUse" spreadMethod="reflect" id="fill4"><stop offset="0" stop-color="#BA8A48"/><stop offset="0.26" stop-color="#BA8A48"/><stop offset="0.87" stop-color="#F9EFA0"/><stop offset="1" stop-color="#F9EFA0"/></linearGradient></defs><g><rect x="0" y="0" width="960" height="960" fill="url(#fill0)"/><rect x="0" y="0" width="960" height="960"/><path d="M249.252 641.013C247.909 641.013 246.566 640.499 245.543 639.476 243.491 637.424 243.491 634.108 245.543 632.056L451.046 426.552C453.097 424.5 456.414 424.5 458.465 426.552 460.517 428.603 460.517 431.92 458.465 433.971L252.962 639.476C251.939 640.499 250.596 641.013 249.252 641.013Z" fill="url(#fill1)" fill-rule="evenodd"/><path d="M575.018 347.005C565.936 347.005 557.398 343.469 550.973 337.046 544.548 330.628 541.012 322.091 541.012 313.005 541.012 303.919 544.554 295.383 550.973 288.965L550.973 288.965 550.973 288.965C557.398 282.541 565.931 279.005 575.018 279.005 584.106 279.005 592.644 282.541 599.069 288.965 612.326 302.225 612.326 323.791 599.069 337.046 592.644 343.469 584.106 347.005 575.018 347.005ZM575.018 289.472C568.73 289.472 562.818 291.92 558.371 296.366L558.371 296.366C553.919 300.812 551.475 306.723 551.475 313.01 551.475 319.298 553.924 325.209 558.371 329.655 562.818 334.101 568.725 336.549 575.018 336.549 581.312 336.549 587.219 334.101 591.671 329.655 600.848 320.48 600.848 305.546 591.671 296.366 587.219 291.915 581.307 289.472 575.018 289.472Z" fill="url(#fill2)" fill-rule="evenodd"/><path d="M579.818 442.871C663.434 345.581 709.228 259.973 715.931 188.431 716.424 183.153 714.553 177.97 710.801 174.218 707.048 170.466 701.886 168.589 696.582 169.087 625.041 175.785 539.427 221.61 442.127 305.238L344.423 302.759C330.037 302.287 316.097 307.994 305.977 318.119L261.436 362.661C256.724 367.372 254.932 374.033 256.646 380.474 258.359 386.915 263.228 391.805 269.695 393.555L388.1 424.832C388.545 424.948 388.996 425.005 389.442 425.005 391.763 425.005 393.886 423.454 394.504 421.106 395.243 418.308 393.577 415.436 390.778 414.697L272.41 383.43C269.627 382.675 267.52 380.563 266.781 377.775 266.037 374.993 266.813 372.11 268.852 370.071L313.393 325.53C321.495 317.428 332.716 312.963 344.167 313.235L443.883 315.761C444.166 315.766 444.423 315.651 444.695 315.609 445.067 315.562 445.434 315.531 445.79 315.405 445.979 315.331 446.131 315.206 446.309 315.116 446.692 314.928 447.095 314.776 447.436 314.488 543.688 231.458 627.849 186.046 697.557 179.522 699.706 179.328 701.844 180.088 703.38 181.628 704.92 183.164 705.685 185.292 705.481 187.451 698.998 256.787 654.038 340.424 571.857 436.042 571.632 436.305 571.537 436.619 571.375 436.907 570.08 437.892 569.2 439.391 569.242 441.142L571.763 540.853C572.056 552.315 567.575 563.525 559.473 571.622L514.932 616.163C512.893 618.202 510.027 618.972 507.228 618.239 504.44 617.494 502.328 615.393 501.573 612.61L469.148 493.052C468.389 490.264 465.522 488.587 462.718 489.367 459.925 490.127 458.274 492.999 459.029 495.798L491.458 615.356C493.198 621.792 498.088 626.65 504.524 628.369 506.138 628.799 507.757 629.008 509.366 629.008 514.177 629.003 518.81 627.116 522.342 623.579L566.884 579.037C577.009 568.923 582.601 554.909 582.244 540.591L579.771 442.903C579.792 442.887 579.807 442.882 579.818 442.871Z" fill="url(#fill3)" fill-rule="evenodd"/><path d="M593.828 808.536C594.16 808.536 594.713 808.827 595.488 809.408 597.895 811.456 599.984 813.503 601.755 815.551 601.921 815.744 602.129 815.993 602.378 816.298 602.627 816.602 602.807 816.858 602.917 817.065 603.028 817.273 603.083 817.501 603.083 817.75 603.083 817.999 603.021 818.234 602.897 818.456 602.772 818.677 602.558 818.982 602.253 819.369L601.714 820.033C600.053 821.887 597.978 823.907 595.488 826.093 594.769 826.674 594.215 826.964 593.828 826.964 593.634 826.964 593.42 826.902 593.185 826.777 592.949 826.653 592.597 826.425 592.126 826.093 589.968 824.349 587.879 822.288 585.859 819.908 585.693 819.715 585.486 819.473 585.237 819.182 584.988 818.892 584.808 818.643 584.697 818.435 584.586 818.228 584.531 817.999 584.531 817.75 584.531 817.474 584.593 817.225 584.718 817.003 584.842 816.782 585.022 816.54 585.257 816.277 585.493 816.014 585.693 815.772 585.859 815.551 587.326 813.863 589.442 811.815 592.209 809.408 592.624 809.076 592.949 808.848 593.185 808.723 593.42 808.599 593.634 808.536 593.828 808.536ZM738.26 806.088C734.635 806.088 731.833 806.371 729.855 806.938 727.877 807.506 726.542 808.246 725.85 809.159 725.158 810.072 724.812 811.151 724.812 812.396 724.812 815.246 726.542 816.671 730 816.671 732.325 816.671 734.171 816.083 735.541 814.907 736.911 813.731 737.817 812.327 738.26 810.695ZM289.26 806.088C285.635 806.088 282.833 806.371 280.855 806.938 278.877 807.506 277.542 808.246 276.85 809.159 276.158 810.072 275.812 811.151 275.812 812.396 275.812 815.246 277.542 816.671 281 816.671 283.325 816.671 285.171 816.083 286.541 814.907 287.911 813.731 288.817 812.327 289.26 810.695ZM207.26 806.088C203.635 806.088 200.833 806.371 198.855 806.938 196.877 807.506 195.542 808.246 194.85 809.159 194.158 810.072 193.812 811.151 193.812 812.396 193.812 815.246 195.542 816.671 199 816.671 201.325 816.671 203.171 816.083 204.541 814.907 205.911 813.731 206.817 812.327 207.26 810.695ZM681.977 792.308C677.826 792.308 675.018 793.969 673.552 797.289L673.552 806.295C673.552 809.09 674.264 811.359 675.689 813.102 677.114 814.845 679.141 815.717 681.769 815.717 684.785 815.717 687.109 814.665 688.742 812.562 690.375 810.459 691.191 807.443 691.191 803.514 691.191 799.751 690.437 796.943 688.929 795.089 687.421 793.235 685.103 792.308 681.977 792.308ZM823.321 790.565C820.803 790.565 818.88 791.368 817.552 792.972 816.223 794.577 815.393 796.749 815.061 799.489L828.592 799.489C829.366 799.489 829.913 799.343 830.231 799.053 830.549 798.762 830.708 798.257 830.708 797.538 830.708 795.463 830.072 793.782 828.799 792.495 827.526 791.208 825.7 790.565 823.321 790.565ZM524.321 790.565C521.803 790.565 519.88 791.368 518.552 792.972 517.223 794.577 516.393 796.749 516.061 799.489L529.592 799.489C530.366 799.489 530.913 799.343 531.231 799.053 531.549 798.762 531.708 798.257 531.708 797.538 531.708 795.463 531.072 793.782 529.799 792.495 528.526 791.208 526.7 790.565 524.321 790.565ZM405.321 790.565C402.803 790.565 400.88 791.368 399.552 792.972 398.223 794.577 397.393 796.749 397.061 799.489L410.592 799.489C411.366 799.489 411.913 799.343 412.231 799.053 412.549 798.762 412.708 798.257 412.708 797.538 412.708 795.463 412.072 793.782 410.799 792.495 409.526 791.208 407.7 790.565 405.321 790.565ZM363.719 782.762 372.269 782.762C373.099 782.762 373.687 782.922 374.033 783.24 374.379 783.558 374.552 784.132 374.552 784.962L374.552 823.063C374.552 823.893 374.379 824.467 374.033 824.785 373.687 825.103 373.099 825.262 372.269 825.262L363.719 825.262C362.889 825.262 362.301 825.103 361.955 824.785 361.609 824.467 361.436 823.893 361.436 823.063L361.436 784.962C361.436 784.132 361.609 783.558 361.955 783.24 362.301 782.922 362.889 782.762 363.719 782.762ZM438.753 781.808C439.112 781.808 439.486 781.946 439.873 782.223 442.17 783.883 443.982 785.529 445.31 787.162 445.504 787.411 445.629 787.612 445.684 787.764 445.739 787.916 445.767 788.158 445.767 788.49 445.767 792.17 446.189 796.562 447.033 801.667 447.877 806.772 448.921 810.791 450.166 813.724L450.415 813.724C451.301 811.815 452.276 809.083 453.341 805.527 454.407 801.972 455.389 798.361 456.288 794.695 457.187 791.029 457.831 788.144 458.218 786.041 458.384 785.018 458.792 784.312 459.442 783.925 460.093 783.537 461.068 783.344 462.369 783.344L467.183 783.344C468.539 783.344 469.521 783.544 470.13 783.945 470.738 784.347 471.112 785.045 471.25 786.041 471.721 789.113 472.793 793.837 474.467 800.215 476.141 806.593 477.504 811.096 478.555 813.724L478.846 813.724C479.676 811.898 480.464 809.526 481.211 806.606 481.958 803.687 482.567 800.616 483.037 797.393 483.508 794.169 483.743 791.215 483.743 788.531 483.743 788.172 483.764 787.916 483.805 787.764 483.847 787.612 483.964 787.411 484.158 787.162 485.458 785.557 487.243 783.911 489.512 782.223 489.899 781.946 490.259 781.808 490.591 781.808 490.979 781.808 491.338 781.946 491.67 782.223 493.884 783.855 495.668 785.502 497.024 787.162 497.218 787.411 497.336 787.618 497.377 787.784 497.419 787.95 497.439 788.199 497.439 788.531 497.439 790.662 496.81 793.996 495.551 798.534 494.292 803.072 492.77 807.616 490.985 812.168 489.201 816.72 487.603 820.074 486.192 822.233 485.555 823.201 485.05 823.879 484.677 824.266 484.303 824.654 483.826 824.917 483.245 825.055 482.664 825.193 481.778 825.262 480.589 825.262L475.899 825.262C474.515 825.262 473.471 825.069 472.765 824.681 472.06 824.294 471.402 823.478 470.794 822.233 470.074 820.822 469.057 817.729 467.743 812.957 466.429 808.184 465.606 804.801 465.274 802.809 465.108 801.868 464.949 800.824 464.797 799.675 464.644 798.527 464.554 797.621 464.527 796.957L464.319 796.957C464.291 797.621 464.202 798.534 464.049 799.696 463.897 800.858 463.738 801.91 463.572 802.85 463.212 804.704 462.334 807.803 460.937 812.147 459.539 816.491 458.287 819.853 457.181 822.233 456.765 823.09 456.33 823.734 455.873 824.163 455.417 824.591 454.842 824.882 454.151 825.034 453.459 825.186 452.518 825.262 451.328 825.262L446.514 825.262C445.601 825.262 444.909 825.179 444.439 825.013 443.968 824.847 443.574 824.578 443.256 824.204 442.938 823.831 442.474 823.173 441.866 822.233 440.593 820.24 439.154 816.969 437.549 812.417 435.944 807.865 434.575 803.272 433.44 798.638 432.306 794.003 431.739 790.607 431.739 788.448 431.739 788.116 431.759 787.881 431.801 787.743 431.842 787.605 431.974 787.411 432.195 787.162 433.468 785.585 435.28 783.938 437.632 782.223 437.854 782.057 438.047 781.946 438.213 781.891 438.379 781.836 438.559 781.808 438.753 781.808ZM317.923 781.808C318.282 781.808 318.656 781.946 319.043 782.223 321.34 783.883 323.152 785.529 324.48 787.162 324.674 787.411 324.798 787.612 324.854 787.764 324.909 787.916 324.937 788.158 324.937 788.49 324.937 790.316 325.262 792.71 325.912 795.67 326.562 798.631 327.469 801.73 328.631 804.967 329.793 808.204 331.093 811.123 332.532 813.724L332.74 813.724C334.317 811.179 335.693 808.28 336.869 805.029 338.045 801.778 338.951 798.658 339.588 795.67 340.224 792.682 340.542 790.302 340.542 788.531 340.542 788.172 340.563 787.916 340.605 787.764 340.646 787.612 340.764 787.411 340.957 787.162 342.258 785.557 344.042 783.911 346.311 782.223 346.699 781.946 347.058 781.808 347.39 781.808 347.778 781.808 348.138 781.946 348.47 782.223 350.683 783.855 352.468 785.502 353.824 787.162 354.017 787.411 354.135 787.618 354.176 787.784 354.218 787.95 354.239 788.199 354.239 788.531 354.239 790.468 353.588 793.477 352.288 797.559 350.987 801.64 349.32 805.894 347.287 810.321 345.253 814.748 343.199 818.442 341.123 821.403 340.376 822.482 339.754 823.27 339.256 823.768 338.758 824.266 338.149 824.64 337.43 824.889 336.71 825.138 335.728 825.262 334.483 825.262L330.083 825.262C328.755 825.262 327.725 825.145 326.991 824.91 326.258 824.674 325.649 824.308 325.165 823.81 324.681 823.312 324.093 822.509 323.401 821.403 321.437 818.304 319.486 814.534 317.549 810.093 315.612 805.652 314.021 801.418 312.776 797.393 311.531 793.367 310.909 790.399 310.909 788.49 310.909 788.158 310.929 787.916 310.971 787.764 311.012 787.612 311.144 787.411 311.365 787.162 312.638 785.585 314.45 783.938 316.802 782.223 317.023 782.057 317.217 781.946 317.383 781.891 317.549 781.836 317.729 781.808 317.923 781.808ZM823.404 781.725C827.471 781.725 830.971 782.465 833.904 783.945 836.837 785.426 839.064 787.48 840.586 790.109 842.108 792.737 842.869 795.753 842.869 799.156 842.869 802.366 842.053 804.642 840.42 805.984 838.788 807.326 836.297 807.997 832.95 807.997L815.144 807.997C815.338 810.819 816.369 812.984 818.236 814.492 820.104 816 822.657 816.754 825.894 816.754 829.436 816.754 832.548 815.772 835.232 813.807 835.537 813.586 835.786 813.441 835.979 813.372 836.173 813.302 836.408 813.268 836.685 813.268 837.321 813.268 838.158 813.379 839.196 813.6 840.233 813.821 841.236 814.195 842.205 814.72 842.897 815.08 843.242 815.578 843.242 816.215 843.242 816.574 843.173 817.086 843.035 817.75 842.703 819.272 842.316 820.517 841.873 821.486 841.762 821.679 841.651 821.838 841.541 821.963 841.43 822.087 841.278 822.219 841.084 822.357 837.46 824.986 832.189 826.3 825.271 826.3 817.994 826.3 812.322 824.522 808.255 820.967 804.187 817.411 802.154 811.981 802.154 804.677 802.154 799.724 803.025 795.532 804.768 792.101 806.511 788.67 808.974 786.083 812.156 784.34 815.338 782.596 819.087 781.725 823.404 781.725ZM783.603 781.725C786.453 781.725 788.667 781.946 790.244 782.389 791.821 782.832 792.942 783.302 793.606 783.8 794.214 784.187 794.685 784.685 795.017 785.294 795.238 785.654 795.466 786.214 795.702 786.975 795.937 787.736 796.11 788.518 796.22 789.32 796.304 789.735 796.345 790.053 796.345 790.275 796.345 790.607 796.269 790.876 796.117 791.084 795.965 791.292 795.667 791.547 795.224 791.852 794.588 792.267 793.876 792.654 793.087 793.014 792.298 793.374 791.641 793.623 791.115 793.761 790.839 793.844 790.617 793.885 790.451 793.885 790.285 793.885 790.106 793.837 789.912 793.74 789.718 793.643 789.497 793.512 789.248 793.346 788.556 792.876 787.83 792.495 787.069 792.205 786.308 791.914 785.305 791.769 784.06 791.769 782.206 791.769 780.47 792.225 778.851 793.138 777.232 794.052 775.932 795.414 774.95 797.227 773.967 799.039 773.476 801.204 773.476 803.722 773.476 806.351 773.947 808.606 774.888 810.487 775.828 812.369 777.163 813.8 778.893 814.783 780.622 815.765 782.663 816.256 785.014 816.256 787.864 816.256 790.299 815.689 792.319 814.554 792.679 814.361 792.997 814.264 793.274 814.264 793.716 814.264 794.048 814.554 794.27 815.135L797.3 821.984C797.383 822.15 797.424 822.33 797.424 822.523 797.424 822.966 797.217 823.298 796.802 823.519 795.446 824.239 793.578 824.882 791.199 825.449 788.819 826.016 786.094 826.3 783.022 826.3 778.346 826.3 774.293 825.47 770.862 823.81 767.431 822.15 764.788 819.666 762.934 816.36 761.08 813.053 760.154 808.993 760.154 804.178 760.154 799.53 761.108 795.518 763.017 792.142 764.927 788.767 767.645 786.187 771.173 784.402 774.701 782.617 778.844 781.725 783.603 781.725ZM732.49 781.725C738.744 781.725 743.413 783.233 746.498 786.249 749.583 789.265 751.126 793.802 751.126 799.862L751.126 823.353C751.126 823.934 750.974 824.398 750.669 824.744 750.365 825.09 749.881 825.262 749.217 825.262L742.991 825.262C742.493 825.262 742.078 825.2 741.746 825.076 741.414 824.951 741.11 824.709 740.833 824.349L738.26 821.029 737.969 821.029C735.534 824.543 731.356 826.3 725.435 826.3 722.723 826.3 720.371 825.788 718.379 824.764 716.387 823.741 714.851 822.26 713.772 820.323 712.693 818.387 712.154 816.09 712.154 813.434 712.154 810.418 712.901 807.831 714.395 805.673 715.889 803.514 718.559 801.771 722.405 800.443 726.251 799.115 731.564 798.354 738.343 798.16 738.343 795.698 737.72 793.899 736.475 792.765 735.23 791.63 733.334 791.063 730.789 791.063 728.852 791.063 727.192 791.368 725.808 791.976 724.425 792.585 723.332 793.194 722.53 793.802 722.308 793.996 722.094 794.121 721.886 794.176 721.679 794.231 721.423 794.231 721.118 794.176 720.454 794.093 719.77 793.934 719.064 793.699 718.358 793.464 717.342 793.111 716.013 792.64 715.543 792.447 715.294 792.17 715.266 791.81 715.266 791.451 715.349 790.897 715.515 790.15 715.626 789.514 715.792 788.801 716.013 788.013 716.235 787.224 716.442 786.622 716.636 786.207 716.774 785.931 716.933 785.702 717.113 785.522 717.293 785.343 717.549 785.128 717.881 784.879 718.324 784.519 719.154 784.098 720.371 783.613 721.589 783.129 723.228 782.693 725.29 782.306 727.351 781.919 729.751 781.725 732.49 781.725ZM524.404 781.725C528.471 781.725 531.971 782.465 534.904 783.945 537.837 785.426 540.064 787.48 541.586 790.109 543.108 792.737 543.869 795.753 543.869 799.156 543.869 802.366 543.053 804.642 541.42 805.984 539.788 807.326 537.297 807.997 533.95 807.997L516.144 807.997C516.338 810.819 517.369 812.984 519.236 814.492 521.104 816 523.657 816.754 526.894 816.754 530.436 816.754 533.548 815.772 536.232 813.807 536.537 813.586 536.786 813.441 536.979 813.372 537.173 813.302 537.408 813.268 537.685 813.268 538.321 813.268 539.158 813.379 540.196 813.6 541.233 813.821 542.236 814.195 543.205 814.72 543.897 815.08 544.242 815.578 544.242 816.215 544.242 816.574 544.173 817.086 544.035 817.75 543.703 819.272 543.316 820.517 542.873 821.486 542.762 821.679 542.651 821.838 542.541 821.963 542.43 822.087 542.278 822.219 542.084 822.357 538.46 824.986 533.189 826.3 526.271 826.3 518.994 826.3 513.322 824.522 509.255 820.967 505.187 817.411 503.154 811.981 503.154 804.677 503.154 799.724 504.025 795.532 505.768 792.101 507.512 788.67 509.974 786.083 513.156 784.34 516.338 782.596 520.087 781.725 524.404 781.725ZM405.404 781.725C409.471 781.725 412.971 782.465 415.904 783.945 418.837 785.426 421.064 787.48 422.586 790.109 424.108 792.737 424.869 795.753 424.869 799.156 424.869 802.366 424.053 804.642 422.42 805.984 420.788 807.326 418.297 807.997 414.95 807.997L397.144 807.997C397.338 810.819 398.369 812.984 400.236 814.492 402.104 816 404.657 816.754 407.894 816.754 411.436 816.754 414.548 815.772 417.232 813.807 417.537 813.586 417.786 813.441 417.979 813.372 418.173 813.302 418.408 813.268 418.685 813.268 419.321 813.268 420.158 813.379 421.196 813.6 422.233 813.821 423.236 814.195 424.205 814.72 424.897 815.08 425.243 815.578 425.243 816.215 425.243 816.574 425.173 817.086 425.035 817.75 424.703 819.272 424.316 820.517 423.873 821.486 423.762 821.679 423.652 821.838 423.541 821.963 423.43 822.087 423.278 822.219 423.084 822.357 419.46 824.986 414.189 826.3 407.271 826.3 399.994 826.3 394.322 824.522 390.255 820.967 386.187 817.411 384.154 811.981 384.154 804.677 384.154 799.724 385.025 795.532 386.768 792.101 388.512 788.67 390.974 786.083 394.156 784.34 397.338 782.596 401.087 781.725 405.404 781.725ZM283.491 781.725C289.744 781.725 294.413 783.233 297.498 786.249 300.583 789.265 302.126 793.802 302.126 799.862L302.126 823.353C302.126 823.934 301.974 824.398 301.669 824.744 301.365 825.09 300.881 825.262 300.217 825.262L293.991 825.262C293.493 825.262 293.078 825.2 292.746 825.076 292.414 824.951 292.11 824.709 291.833 824.349L289.26 821.029 288.969 821.029C286.534 824.543 282.356 826.3 276.435 826.3 273.723 826.3 271.371 825.788 269.379 824.764 267.387 823.741 265.851 822.26 264.772 820.323 263.693 818.387 263.154 816.09 263.154 813.434 263.154 810.418 263.901 807.831 265.395 805.673 266.889 803.514 269.559 801.771 273.405 800.443 277.251 799.115 282.564 798.354 289.343 798.16 289.343 795.698 288.72 793.899 287.475 792.765 286.23 791.63 284.334 791.063 281.789 791.063 279.852 791.063 278.192 791.368 276.808 791.976 275.425 792.585 274.332 793.194 273.53 793.802 273.308 793.996 273.094 794.121 272.886 794.176 272.679 794.231 272.423 794.231 272.118 794.176 271.454 794.093 270.77 793.934 270.064 793.699 269.358 793.464 268.342 793.111 267.013 792.64 266.543 792.447 266.294 792.17 266.266 791.81 266.266 791.451 266.349 790.897 266.515 790.15 266.626 789.514 266.792 788.801 267.013 788.013 267.235 787.224 267.442 786.622 267.636 786.207 267.774 785.931 267.934 785.702 268.113 785.522 268.293 785.343 268.549 785.128 268.881 784.879 269.324 784.519 270.154 784.098 271.371 783.613 272.589 783.129 274.228 782.693 276.29 782.306 278.351 781.919 280.751 781.725 283.491 781.725ZM201.491 781.725C207.744 781.725 212.413 783.233 215.498 786.249 218.583 789.265 220.126 793.802 220.126 799.862L220.126 823.353C220.126 823.934 219.974 824.398 219.669 824.744 219.365 825.09 218.881 825.262 218.217 825.262L211.991 825.262C211.493 825.262 211.078 825.2 210.746 825.076 210.414 824.951 210.11 824.709 209.833 824.349L207.26 821.029 206.969 821.029C204.534 824.543 200.356 826.3 194.435 826.3 191.723 826.3 189.371 825.788 187.379 824.764 185.387 823.741 183.851 822.26 182.772 820.323 181.693 818.387 181.154 816.09 181.154 813.434 181.154 810.418 181.901 807.831 183.395 805.673 184.889 803.514 187.559 801.771 191.405 800.443 195.251 799.115 200.564 798.354 207.343 798.16 207.343 795.698 206.72 793.899 205.475 792.765 204.23 791.63 202.334 791.063 199.789 791.063 197.852 791.063 196.192 791.368 194.808 791.976 193.425 792.585 192.332 793.194 191.53 793.802 191.308 793.996 191.094 794.121 190.886 794.176 190.679 794.231 190.423 794.231 190.118 794.176 189.454 794.093 188.77 793.934 188.064 793.699 187.358 793.464 186.342 793.111 185.014 792.64 184.543 792.447 184.294 792.17 184.266 791.81 184.266 791.451 184.349 790.897 184.515 790.15 184.626 789.514 184.792 788.801 185.014 788.013 185.235 787.224 185.442 786.622 185.636 786.207 185.774 785.931 185.934 785.702 186.113 785.522 186.293 785.343 186.549 785.128 186.881 784.879 187.324 784.519 188.154 784.098 189.371 783.613 190.589 783.129 192.228 782.693 194.29 782.306 196.351 781.919 198.751 781.725 201.491 781.725ZM667.077 781.393C667.298 781.393 667.485 781.421 667.637 781.476 667.789 781.531 667.976 781.642 668.198 781.808 670.356 783.496 672.085 785.225 673.385 786.996L673.593 786.996C674.728 785.585 676.284 784.353 678.262 783.302 680.241 782.251 683.111 781.725 686.874 781.725 690.803 781.725 694.096 782.617 696.752 784.402 699.409 786.187 701.387 788.656 702.687 791.81 703.988 794.965 704.638 798.631 704.638 802.809 704.638 807.291 703.877 811.31 702.355 814.866 700.833 818.421 698.578 821.216 695.59 823.25 692.602 825.283 689.005 826.3 684.799 826.3 681.839 826.3 679.521 825.864 677.847 824.993 676.173 824.121 674.797 823.049 673.718 821.776L673.552 821.776 673.552 839.457C673.552 839.9 673.531 840.204 673.489 840.37 673.448 840.536 673.33 840.743 673.136 840.992 671.974 842.514 670.273 844.161 668.032 845.931 667.644 846.208 667.298 846.346 666.994 846.346 666.662 846.346 666.316 846.208 665.956 845.931 663.771 844.244 662.069 842.597 660.851 840.992 660.658 840.743 660.54 840.529 660.499 840.349 660.457 840.169 660.436 839.872 660.436 839.457L660.436 788.282C660.436 787.867 660.457 787.57 660.499 787.39 660.54 787.21 660.658 786.996 660.851 786.747 662.069 785.142 663.771 783.496 665.956 781.808 666.316 781.531 666.69 781.393 667.077 781.393ZM560.201 781.393C560.589 781.393 560.976 781.531 561.364 781.808 563.66 783.606 565.265 785.142 566.178 786.415 566.427 786.747 566.552 787.134 566.552 787.577L566.552 790.648 566.718 790.648C568.793 784.893 572.528 782.015 577.924 782.015 579.141 782.015 580.013 782.112 580.538 782.306 580.76 782.389 580.919 782.493 581.016 782.617 581.112 782.742 581.161 782.956 581.161 783.26L581.161 793.263C581.161 793.844 580.912 794.135 580.414 794.135 580.165 794.135 579.916 794.079 579.667 793.969 578.477 793.526 577.135 793.304 575.641 793.304 572.819 793.304 570.598 794.349 568.979 796.438 567.361 798.527 566.552 801.37 566.552 804.967L566.552 823.063C566.552 823.893 566.379 824.467 566.033 824.785 565.687 825.103 565.099 825.262 564.269 825.262L555.719 825.262C554.889 825.262 554.301 825.103 553.955 824.785 553.609 824.467 553.436 823.893 553.436 823.063L553.436 788.282C553.436 787.867 553.457 787.57 553.499 787.39 553.54 787.21 553.658 786.996 553.851 786.747 555.069 785.142 556.771 783.496 558.956 781.808 559.316 781.531 559.731 781.393 560.201 781.393ZM138.611 776.661C136.813 776.661 135.574 777.042 134.897 777.803 134.219 778.564 133.88 779.899 133.88 781.808L133.88 809.2C133.88 811.11 134.219 812.452 134.897 813.226 135.574 814.001 136.813 814.388 138.611 814.388L140.52 814.388C146.691 814.388 151.339 812.88 154.466 809.865 157.592 806.849 159.156 801.868 159.156 794.923 159.156 790.275 158.436 786.615 156.997 783.945 155.559 781.275 153.476 779.394 150.751 778.301 148.026 777.208 144.588 776.661 140.437 776.661ZM240.941 769.191C241.273 769.191 241.605 769.329 241.937 769.606 244.123 771.294 245.824 772.94 247.042 774.545 247.236 774.794 247.353 775.008 247.395 775.188 247.436 775.368 247.457 775.665 247.457 776.08L247.457 782.762 254.803 782.762C255.633 782.762 256.207 782.935 256.525 783.281 256.844 783.627 257.003 784.215 257.003 785.045L257.003 790.15C257.003 790.98 256.844 791.568 256.525 791.914 256.207 792.26 255.633 792.433 254.803 792.433L247.457 792.433 247.457 809.615C247.457 811.801 247.872 813.455 248.702 814.575 249.532 815.696 250.722 816.256 252.271 816.256 253.157 816.256 253.973 816.104 254.72 815.8 255.246 815.606 255.592 815.509 255.758 815.509 255.951 815.509 256.104 815.585 256.214 815.737 256.325 815.89 256.449 816.132 256.588 816.464L258.995 822.897C259.106 823.229 259.161 823.45 259.161 823.561 259.161 823.921 258.94 824.197 258.497 824.391 257.418 824.889 256.124 825.332 254.616 825.719 253.108 826.106 250.985 826.3 248.245 826.3 239.004 826.3 234.383 821.499 234.383 811.898L234.383 792.433 229.693 792.433C228.863 792.433 228.289 792.26 227.971 791.914 227.653 791.568 227.493 790.98 227.493 790.15L227.493 785.045C227.493 784.215 227.653 783.627 227.971 783.281 228.289 782.935 228.863 782.762 229.693 782.762L234.383 782.762 234.383 776.08C234.383 775.638 234.404 775.333 234.445 775.167 234.487 775.001 234.604 774.794 234.798 774.545 235.96 773.023 237.662 771.377 239.903 769.606 240.291 769.329 240.636 769.191 240.941 769.191ZM130.725 765.746 143.467 765.746C149.72 765.746 155.04 766.659 159.425 768.485 163.811 770.311 167.214 773.369 169.635 777.657 172.056 781.946 173.267 787.646 173.267 794.757 173.267 805.327 170.652 813.053 165.423 817.937 160.193 822.821 152.875 825.262 143.467 825.262L130.725 825.262C127.875 825.262 125.724 824.903 124.272 824.183 122.819 823.464 121.823 822.33 121.283 820.78 120.744 819.231 120.474 817.017 120.474 814.139L120.474 776.869C120.474 773.936 120.737 771.695 121.263 770.145 121.788 768.596 122.777 767.475 124.23 766.783 125.683 766.092 127.848 765.746 130.725 765.746ZM632.188 764.833C635.232 764.833 637.867 765.199 640.095 765.933 642.322 766.666 644.072 767.503 645.345 768.444 646.618 769.384 647.503 770.256 648.001 771.058 648.223 771.39 648.361 771.646 648.416 771.826 648.472 772.006 648.527 772.262 648.582 772.594 648.638 773.479 648.665 774.171 648.665 774.669 648.665 776.025 648.568 777.478 648.375 779.027 648.292 779.47 648.14 779.774 647.918 779.94 647.725 780.079 647.42 780.148 647.005 780.148 644.321 780.203 642.246 780.065 640.78 779.733 640.254 779.622 639.887 779.504 639.68 779.38 639.472 779.255 639.202 779.013 638.87 778.654 638.123 777.823 637.279 777.132 636.339 776.578 635.398 776.025 634.014 775.748 632.188 775.748 629.477 775.748 627.464 776.364 626.149 777.595 624.835 778.827 624.178 780.341 624.178 782.14 624.178 783.413 624.558 784.492 625.319 785.377 626.08 786.263 627.229 787.065 628.764 787.784 630.3 788.504 632.506 789.375 635.384 790.399 639.009 791.672 641.907 792.966 644.079 794.28 646.251 795.594 647.932 797.296 649.122 799.385 650.312 801.474 650.906 804.151 650.906 807.416 650.906 811.539 649.952 815.011 648.043 817.833 646.134 820.656 643.498 822.765 640.136 824.163 636.774 825.56 632.921 826.259 628.577 826.259 623.818 826.259 620.055 825.671 617.288 824.495 614.521 823.319 612.446 821.845 611.063 820.074 610.758 819.632 610.523 819.258 610.357 818.954 610.191 818.65 610.067 818.304 609.984 817.916 609.707 816.45 609.569 815.108 609.569 813.89 609.569 813.337 609.582 812.908 609.61 812.604 609.61 812.382 609.631 812.189 609.672 812.023 609.714 811.857 609.79 811.705 609.901 811.566 610.094 811.345 610.413 811.179 610.855 811.068 611.602 810.902 612.626 810.736 613.927 810.57 615.227 810.404 616.168 810.321 616.749 810.321 617.302 810.321 617.759 810.425 618.118 810.632 618.478 810.84 618.921 811.22 619.447 811.774 620.332 812.714 621.46 813.545 622.829 814.264 624.199 814.983 626.115 815.343 628.577 815.343 631.261 815.343 633.302 814.783 634.699 813.662 636.097 812.542 636.795 810.957 636.795 808.91 636.795 807.776 636.456 806.738 635.778 805.797 635.1 804.856 633.897 803.916 632.168 802.975 630.438 802.034 628.024 801.038 624.925 799.987 621.328 798.797 618.457 797.434 616.313 795.898 614.169 794.363 612.592 792.516 611.582 790.358 610.572 788.199 610.067 785.557 610.067 782.43 610.067 778.667 610.994 775.465 612.847 772.822 614.701 770.18 617.288 768.188 620.609 766.846 623.929 765.504 627.789 764.833 632.188 764.833ZM368.035 760.35C368.229 760.35 368.43 760.406 368.637 760.516 368.845 760.627 369.156 760.835 369.571 761.139 371.812 763.076 373.722 764.957 375.299 766.783 375.409 766.894 375.589 767.095 375.838 767.385 376.087 767.676 376.267 767.932 376.378 768.153 376.488 768.374 376.544 768.596 376.544 768.817 376.544 769.066 376.482 769.301 376.357 769.523 376.232 769.744 376.053 769.986 375.817 770.249 375.582 770.512 375.396 770.726 375.257 770.892 373.791 772.608 371.895 774.462 369.571 776.454 368.935 776.98 368.423 777.242 368.035 777.242 367.842 777.242 367.634 777.187 367.413 777.076 367.192 776.966 366.873 776.758 366.458 776.454 364.466 774.877 362.557 772.995 360.731 770.809 360.648 770.699 360.475 770.498 360.212 770.208 359.949 769.917 359.769 769.668 359.672 769.46 359.576 769.253 359.527 769.039 359.527 768.817 359.527 768.513 359.603 768.243 359.755 768.008 359.908 767.773 360.233 767.365 360.731 766.783 362.142 765.151 364.079 763.269 366.541 761.139 366.929 760.835 367.226 760.627 367.434 760.516 367.641 760.406 367.842 760.35 368.035 760.35Z" fill="url(#fill4)" fill-rule="evenodd"/><text fill="#000000" fill-opacity="0" font-family="Arial,Arial_MSFontService,sans-serif" font-size="85.9961" x="120.474" y="835.597">Dataviewer.Space</text></g></svg>