<svg width="6750" height="960.0000000000001"
    xmlns="http://www.w3.org/2000/svg" class="h-6 mr-2">
    <defs>
        <radialGradient cx="3738028" cy="-318558" r="6450929" fx="3738028" fy="-318558" gradientUnits="userSpaceOnUse" spreadMethod="pad" id="fill1" gradientTransform="matrix(0.000104987 0 0 0.000104987 87 514)">
            <stop offset="0" stop-color="#F9EFA0"/>
            <stop offset="0.06" stop-color="#F9EFA0"/>
            <stop offset="0.39" stop-color="#BA8A48"/>
            <stop offset="1" stop-color="#BA8A48"/>
        </radialGradient>
        <radialGradient cx="-961897" cy="2013835" r="6458902" fx="-961897" fy="2013835" gradientUnits="userSpaceOnUse" spreadMethod="pad" id="fill2" gradientTransform="matrix(0.000104987 0 0 0.000104987 582 269)">
            <stop offset="0" stop-color="#F9EFA0"/>
            <stop offset="0.06" stop-color="#F9EFA0"/>
            <stop offset="0.39" stop-color="#BA8A48"/>
            <stop offset="1" stop-color="#BA8A48"/>
        </radialGradient>
        <radialGradient cx="3560120" cy="3745532" r="6463876" fx="3560120" fy="3745532" gradientUnits="userSpaceOnUse" spreadMethod="pad" id="fill3" gradientTransform="matrix(0.000104987 0 0 0.000104987 106 87)">
            <stop offset="0" stop-color="#F9EFA0"/>
            <stop offset="0.06" stop-color="#F9EFA0"/>
            <stop offset="0.39" stop-color="#BA8A48"/>
            <stop offset="1" stop-color="#BA8A48"/>
        </radialGradient>
        <linearGradient id="grad1" x1="0%" x2="100%" y1="0%" y2="0%">
            <stop offset="0%" stop-color="rgb(249, 239, 160)" />
            <stop offset="80%" stop-color="rgb(186, 138, 72)" />
        </linearGradient>
    </defs>
    <g>
        <title>Layer 1</title>
        <g id="svg_1">
            <path fill="url(#fill1)" fill-rule="evenodd" d="m95.73,873.02c-2.23,0 -4.47,-0.86 -6.17,-2.56c-3.41,-3.41 -3.41,-8.92 0,-12.33l341.55,-341.56c3.41,-3.41 8.92,-3.41 12.33,0c3.41,3.41 3.41,8.92 0,12.33l-341.55,341.56c-1.7,1.7 -3.93,2.56 -6.17,2.56l0.01,0z" id="svg_2"/>
            <path fill="url(#fill2)" fill-rule="evenodd" d="m638.53,383.01c-15.09,0 -29.28,-5.93 -39.96,-16.7c-10.68,-10.76 -16.55,-25.07 -16.55,-40.3c0,-15.23 5.88,-29.54 16.55,-40.3l0,0l0,0c10.68,-10.77 24.86,-16.7 39.96,-16.7c15.1,0 29.29,5.93 39.97,16.7c22.03,22.23 22.03,58.39 0,80.61c-10.68,10.77 -24.87,16.7 -39.97,16.7m0,-96.45c-10.45,0 -20.27,4.1 -27.66,11.56l0,0c-7.4,7.45 -11.46,17.36 -11.46,27.9c0,10.54 4.07,20.45 11.46,27.9c7.39,7.45 17.21,11.56 27.66,11.56c10.46,0 20.27,-4.1 27.67,-11.56c15.25,-15.38 15.25,-40.42 0,-55.81c-7.4,-7.46 -17.22,-11.56 -27.67,-11.56l0,0.01z" id="svg_3"/>
            <path d="m645.931,543.651c139.421,-162.221 215.778,-304.964 226.954,-424.252c0.822,-8.8 -2.298,-17.442 -8.555,-23.6988c-6.256,-6.2566 -14.864,-9.3851 -23.707,-8.555c-119.288,11.1678 -262.039,87.5768 -424.276,227.0158l-162.911,-4.133c-23.987,-0.786 -47.231,8.73 -64.105,25.612l-74.267,74.269c-7.856,7.855 -10.845,18.962 -7.987,29.702c2.857,10.739 10.975,18.892 21.758,21.811l197.427,52.151c0.743,0.192 1.495,0.288 2.237,0.288c3.872,0 7.411,-2.586 8.442,-6.501c1.232,-4.667 -1.547,-9.455 -6.213,-10.687l-197.366,-52.134c-4.64,-1.258 -8.153,-4.78 -9.385,-9.429c-1.241,-4.64 0.052,-9.446 3.451,-12.845l74.268,-74.268c13.51,-13.51 32.219,-20.955 51.312,-20.501l166.266,4.212c0.472,0.009 0.9,-0.183 1.354,-0.253c0.621,-0.079 1.233,-0.131 1.827,-0.341c0.315,-0.122 0.568,-0.332 0.865,-0.481c0.638,-0.314 1.311,-0.568 1.879,-1.048c160.49,-138.443 300.82,-214.162 417.049,-225.041c3.583,-0.324 7.148,0.943 9.709,3.512c2.569,2.561 3.845,6.109 3.504,9.709c-10.81,115.609 -85.776,255.066 -222.804,414.499c-0.375,0.437 -0.533,0.961 -0.803,1.442c-2.159,1.643 -3.627,4.142 -3.557,7.061l4.203,166.258c0.49,19.11 -6.982,37.802 -20.491,51.303l-74.268,74.268c-3.399,3.399 -8.179,4.684 -12.846,3.46c-4.649,-1.241 -8.17,-4.745 -9.428,-9.385l-54.065,-199.35c-1.267,-4.649 -6.047,-7.445 -10.722,-6.143c-4.658,1.267 -7.41,6.056 -6.152,10.722l54.073,199.35c2.902,10.731 11.055,18.832 21.785,21.698c2.692,0.716 5.392,1.066 8.075,1.066c8.021,-0.009 15.746,-3.155 21.636,-9.053l74.268,-74.268c16.882,-16.865 26.206,-40.232 25.612,-64.105l-4.124,-162.885c0.034,-0.026 0.061,-0.035 0.078,-0.052z" fill="url(#fill3)" fill-rule="evenodd" id="svg_4"/>
        </g>
        <path fill="url(#grad1)" d="m1250.00002,291.73525l125.03722,0q78.35666,0 116.14568,50.01489q37.78903,50.01489 37.78903,143.93173q0,93.91684 -37.78903,143.93173q-37.78903,50.01489 -116.14568,50.01489l-125.03722,0l0,-387.89324m119.48001,322.31816q37.23331,0 54.46066,-23.896q17.22735,-23.896 17.22735,-69.46512l0,-70.57656q0,-45.0134 -17.22735,-68.9094q-17.22735,-23.896 -54.46066,-23.896l-37.23331,0l0,256.74309l37.23331,0zm449.02255,65.57507q-25.56316,0 -41.12335,-13.11501q-15.56019,-13.00387 -18.33879,-37.45559l-2.7786,0q-7.78009,28.34177 -30.78694,42.79051q-23.11799,14.44875 -56.46125,14.44875q-41.67907,0 -66.90881,-22.56227q-25.34088,-22.45113 -25.34088,-63.01876q0,-45.0134 32.78754,-66.68652q32.78754,-21.67312 96.13973,-21.67312l46.12484,0l0,-14.44875q0,-25.56316 -11.89243,-38.67818q-12.00357,-13.00387 -40.34534,-13.00387q-26.11889,0 -42.23479,10.00298q-16.11591,10.00298 -27.78605,26.11889l-45.0134,-40.01191q14.44875,-24.45172 45.23569,-40.34534q30.89809,-15.78248 79.24581,-15.78248q58.90642,0 92.02739,26.8969q33.00983,27.00804 33.00983,81.46869l0,125.59294l31.6761,0l0,59.46214l-47.23628,0m-118.36857,-47.23628q21.67312,0 36.67758,-10.5587q15.00447,-10.5587 15.00447,-30.56465l0,-34.4547l-43.90196,0q-50.57061,0 -50.57061,33.89898l0,11.11442q0,15.00447 11.67014,22.78456q11.67014,7.78009 31.12037,7.78009zm370.11017,47.23628q-44.45768,0 -66.1308,-23.34028q-21.67312,-23.34028 -21.67312,-59.46214l0,-140.04169l-77.80094,0l0,-63.90791l50.57061,0q18.33879,0 26.11889,-7.22437q7.78009,-7.22437 7.78009,-26.67461l0,-67.24224l75.57805,0l0,101.14122l111.69992,0l0,63.90791l-111.69992,0l0,158.9362l111.69992,0l0,63.90791l-106.14271,0zm415.12357,0q-25.56316,0 -41.12335,-13.11501q-15.56019,-13.00387 -18.33879,-37.45559l-2.7786,0q-7.78009,28.34177 -30.78694,42.79051q-23.11799,14.44875 -56.46125,14.44875q-41.67907,0 -67.01995,-22.56227q-25.22973,-22.45113 -25.22973,-63.01876q0,-45.0134 32.78754,-66.68652q32.78754,-21.67312 96.13973,-21.67312l46.12484,0l0,-14.44875q0,-25.56316 -11.89243,-38.67818q-12.00357,-13.00387 -40.34534,-13.00387q-26.11889,0 -42.23479,10.00298q-16.11591,10.00298 -27.78605,26.11889l-45.0134,-40.01191q14.44875,-24.45172 45.23569,-40.34534q30.89809,-15.78248 79.24581,-15.78248q58.90642,0 92.02739,26.8969q33.00983,27.00804 33.00983,81.46869l0,125.59294l31.6761,0l0,59.46214l-47.23628,0m-118.36857,-47.23628q21.67312,0 36.67758,-10.5587q15.00447,-10.5587 15.00447,-30.56465l0,-34.4547l-43.90196,0q-50.57061,0 -50.57061,33.89898l0,11.11442q0,15.00447 11.67014,22.78456q11.67014,7.78009 31.12037,7.78009zm298.97788,47.23628l-102.80838,-286.75202l86.69247,0l37.23331,122.81433l27.23033,95.58401l4.44577,0l27.23033,-95.58401l37.23331,-122.81433l83.35815,0l-102.80838,286.75202l-97.80689,0zm400.1191,-323.42961q-27.78605,0 -38.56704,-11.44785q-10.89213,-11.33671 -10.89213,-27.45262l0,-16.11591q0,-16.67163 10.89213,-27.78605q10.78099,-11.11442 38.56704,-11.11442q27.78605,0 38.67818,11.11442q10.78099,11.11442 10.78099,27.78605l0,16.11591q0,16.11591 -10.78099,27.45262q-10.89213,11.44785 -38.67818,11.44785m-132.26159,259.52169l91.13824,0l0,-158.9362l-91.13824,0l0,-63.90791l173.38494,0l0,222.84411l84.46959,0l0,63.90791l-257.85453,0l0,-63.90791zm455.6912,70.57656q-72.24373,0 -109.47703,-40.01191q-37.23331,-40.01191 -37.23331,-108.92131q0,-35.01042 9.78069,-63.1299q9.66954,-28.00834 27.78605,-47.792q18.00536,-19.67252 43.90196,-30.00893q25.78545,-10.22527 58.01727,-10.22527q32.23182,0 57.79498,10.22527q25.56316,10.33641 43.34624,29.23092q17.78307,18.89451 27.56376,45.79141q9.66954,27.00804 9.66954,60.3513l0,24.45172l-196.1695,0l0,5.00149q0,27.78605 17.22735,44.67997q17.22735,17.00506 50.57061,17.00506q25.56316,0 43.90196,-9.78069q18.33879,-9.66954 31.6761,-25.78545l44.45768,48.34772q-16.67163,20.56168 -46.68056,35.56614q-30.00893,15.00447 -76.13377,15.00447m-6.66865,-241.1829q-26.67461,0 -42.45708,16.3382q-15.89362,16.44934 -15.89362,44.23539l0,4.44577l115.58996,0l0,-4.44577q0,-28.34177 -15.22675,-44.45768q-15.3379,-16.11591 -42.01251,-16.11591zm169.4949,-52.23777l68.35368,0l20.56168,232.29137l5.55721,0l33.89898,-232.29137l72.24373,0l33.34326,232.29137l5.55721,0l21.1174,-232.29137l65.01935,0l-33.89898,286.75202l-97.80689,0l-28.34177,-197.83667l-5.55721,0l-28.34177,197.83667l-97.80689,0l-33.89898,-286.75202zm504.03892,293.42067q-72.24373,0 -109.47703,-40.01191q-37.23331,-40.01191 -37.23331,-108.92131q0,-35.01042 9.78069,-63.1299q9.66954,-28.00834 27.78605,-47.792q18.00536,-19.67252 43.90196,-30.00893q25.78545,-10.22527 58.01727,-10.22527q32.23182,0 57.79498,10.22527q25.56316,10.33641 43.34624,29.23092q17.78307,18.89451 27.56376,45.79141q9.66954,27.00804 9.66954,60.3513l0,24.45172l-196.1695,0l0,5.00149q0,27.78605 17.22735,44.67997q17.22735,17.00506 50.57061,17.00506q25.56316,0 43.90196,-9.78069q18.33879,-9.66954 31.6761,-25.78545l44.45768,48.34772q-16.67163,20.56168 -46.68056,35.56614q-30.00893,15.00447 -76.13377,15.00447m-6.66865,-241.1829q-26.67461,0 -42.45708,16.3382q-15.89362,16.44934 -15.89362,44.23539l0,4.44577l115.58996,0l0,-4.44577q0,-28.34177 -15.22675,-44.45768q-15.3379,-16.11591 -42.01251,-16.11591zm206.7282,170.60634l66.1308,0l0,-158.9362l-66.1308,0l0,-63.90791l148.3775,0l0,81.13526l3.89005,0q3.89005,-15.56019 10.89213,-30.34237q6.89094,-14.67103 17.78307,-26.11889q10.78099,-11.33671 26.34117,-18.00536q15.56019,-6.66865 36.67758,-6.66865l27.23033,0l0,75.57805l-61.12931,0q-30.56465,0 -46.12484,18.00536q-15.56019,18.1165 -15.56019,44.23539l0,85.02531l94.47257,0l0,63.90791l-242.85007,0l0,-63.90791zm459.02552,70.57656q-31.12037,0 -44.67997,-13.67074q-13.67074,-13.55959 -13.67074,-32.4541l0,-19.45023q0,-18.89451 13.67074,-32.56525q13.55959,-13.55959 44.67997,-13.55959q31.12037,0 44.67997,13.55959q13.67074,13.67074 13.67074,32.56525l0,19.45023q0,18.89451 -13.67074,32.4541q-13.55959,13.67074 -44.67997,13.67074zm327.31965,0q-48.90345,0 -85.02531,-16.11591q-36.12186,-16.11591 -58.3507,-43.90196l48.34772,-53.34921q21.1174,23.34028 46.45827,34.4547q25.22973,11.11442 51.34862,11.11442q30.00893,0 45.56912,-13.3373q15.56019,-13.3373 15.56019,-38.34475q0,-20.56168 -11.89243,-31.12037q-12.00357,-10.5587 -40.34534,-15.00447l-40.56763,-6.66865q-52.23777,-8.89154 -75.57805,-38.67818q-23.34028,-29.6755 -23.34028,-72.46601q0,-56.12782 36.67758,-87.0259q36.67758,-30.78694 102.80838,-30.78694q45.0134,0 78.35666,13.89302q33.34326,13.89302 53.90493,37.78903l-47.23628,52.79349q-15.56019,-17.22735 -36.67758,-27.00804q-21.1174,-9.66954 -47.792,-9.66954q-56.12782,0 -56.12782,46.12484q0,20.00596 12.55929,30.00893q12.44815,10.00298 40.78992,15.00447l40.56763,7.22437q47.23628,8.33581 72.79945,35.56614q25.56316,27.23033 25.56316,73.35517q0,27.23033 -9.44726,50.23718q-9.44726,23.11799 -28.34177,40.01191q-18.89451,17.00506 -46.34713,26.45232q-27.56376,9.44726 -64.24134,9.44726zm205.61676,-293.42067l82.2467,0l0,52.23777l3.89005,0q10.5587,-25.56316 30.56465,-42.23479q20.00596,-16.67163 54.46066,-16.67163q23.896,0 43.56852,8.89154q19.78367,8.89154 34.01012,27.23033q14.11531,18.33879 22.22884,46.68056q8.00238,28.34177 8.00238,67.24224q0,38.90047 -8.00238,67.24224q-8.11353,28.34177 -22.22884,46.68056q-14.22646,18.33879 -34.01012,27.23033q-19.67252,8.89154 -43.56852,8.89154q-34.4547,0 -54.46066,-16.44934q-20.00596,-16.3382 -30.56465,-42.45708l-3.89005,0l0,163.38197l-82.2467,0l0,-397.89622m135.59592,229.51276q27.78605,0 42.79051,-17.00506q15.00447,-16.89392 15.00447,-46.90285l0,-44.45768q0,-30.00893 -15.00447,-47.01399q-15.00447,-16.89392 -42.79051,-16.89392q-21.67312,0 -37.56674,10.5587q-15.78248,10.5587 -15.78248,33.34326l0,84.46959q0,22.78456 15.78248,33.34326q15.89362,10.5587 37.56674,10.5587zm435.68524,57.23926q-25.56316,0 -41.12335,-13.11501q-15.56019,-13.00387 -18.33879,-37.45559l-2.7786,0q-7.78009,28.34177 -30.78694,42.79051q-23.11799,14.44875 -56.46125,14.44875q-41.67907,0 -66.90881,-22.56227q-25.34088,-22.45113 -25.34088,-63.01876q0,-45.0134 32.78754,-66.68652q32.78754,-21.67312 96.13973,-21.67312l46.12484,0l0,-14.44875q0,-25.56316 -12.00357,-38.67818q-11.89243,-13.00387 -40.2342,-13.00387q-26.11889,0 -42.23479,10.00298q-16.11591,10.00298 -27.78605,26.11889l-45.0134,-40.01191q14.44875,-24.45172 45.34683,-40.34534q30.78694,-15.78248 79.13467,-15.78248q58.90642,0 91.91625,26.8969q33.12097,27.00804 33.12097,81.46869l0,125.59294l31.6761,0l0,59.46214l-47.23628,0m-118.36857,-47.23628q21.67312,0 36.67758,-10.5587q15.00447,-10.5587 15.00447,-30.56465l0,-34.4547l-43.90196,0q-50.57061,0 -50.57061,33.89898l0,11.11442q0,15.00447 11.67014,22.78456q11.67014,7.78009 31.12037,7.78009zm359.55147,53.90493q-33.89898,0 -60.79587,-10.33641q-27.00804,-10.22527 -45.56912,-29.6755q-18.67222,-19.45023 -28.6752,-47.23628q-10.00298,-27.78605 -10.00298,-62.79647q0,-35.01042 10.00298,-62.79647q10.00298,-27.78605 28.6752,-47.23628q18.56108,-19.45023 45.56912,-29.78664q26.8969,-10.22527 60.24015,-10.22527q47.23628,0 75.91148,19.1168q28.56406,19.22795 43.56852,50.90404l-63.35219,34.4547q-7.78009,-16.67163 -20.22824,-27.78605q-12.55929,-11.11442 -35.89957,-11.11442q-28.34177,0 -43.56852,16.3382q-15.3379,16.44934 -15.3379,44.79111l0,46.68056q0,28.34177 15.3379,44.67997q15.22675,16.44934 44.67997,16.44934q23.896,0 37.56674,-11.11442q13.55959,-11.11442 23.00685,-28.89749l62.24075,35.56614q-15.56019,31.6761 -45.23569,50.7929q-29.78664,19.22795 -78.13437,19.22795zm329.54254,0q-72.24373,0 -109.47703,-40.01191q-37.23331,-40.01191 -37.23331,-108.92131q0,-35.01042 9.78069,-63.1299q9.66954,-28.00834 27.78605,-47.792q18.00536,-19.67252 43.90196,-30.00893q25.78545,-10.22527 58.01727,-10.22527q32.23182,0 57.79498,10.22527q25.56316,10.33641 43.34624,29.23092q17.78307,18.89451 27.56376,45.79141q9.66954,27.00804 9.66954,60.3513l0,24.45172l-196.1695,0l0,5.00149q0,27.78605 17.22735,44.67997q17.22735,17.00506 50.57061,17.00506q25.56316,0 43.90196,-9.78069q18.33879,-9.66954 31.6761,-25.78545l44.45768,48.34772q-16.67163,20.56168 -46.68056,35.56614q-30.00893,15.00447 -76.13377,15.00447m-6.66865,-241.1829q-26.67461,0 -42.56823,16.3382q-15.78248,16.44934 -15.78248,44.23539l0,4.44577l115.58996,0l0,-4.44577q0,-28.34177 -15.22675,-44.45768q-15.3379,-16.11591 -42.01251,-16.11591z" id="svg_5"/>
        <!-- <g fill="#000000" id="svg_8" transform="matrix(43.0402 0 0 43.0402 0 -407.37)" stroke="null">
   <path id="svg_7" stroke="null"/>
  </g> -->
    </g>
</svg>