<svg width="3999.9999999999995" height="960.0000000000001"
    xmlns="http://www.w3.org/2000/svg" class="h-6 mr-2">
    <defs>
        <radialGradient cx="3738028" cy="-318558" r="6450929" fx="3738028" fy="-318558" gradientUnits="userSpaceOnUse" spreadMethod="pad" id="fill1" gradientTransform="matrix(0.000104987 0 0 0.000104987 87 514)">
            <stop offset="0" stop-color="#F9EFA0"/>
            <stop offset="0.06" stop-color="#F9EFA0"/>
            <stop offset="0.39" stop-color="#BA8A48"/>
            <stop offset="1" stop-color="#BA8A48"/>
        </radialGradient>
        <radialGradient cx="-961897" cy="2013835" r="6458902" fx="-961897" fy="2013835" gradientUnits="userSpaceOnUse" spreadMethod="pad" id="fill2" gradientTransform="matrix(0.000104987 0 0 0.000104987 582 269)">
            <stop offset="0" stop-color="#F9EFA0"/>
            <stop offset="0.06" stop-color="#F9EFA0"/>
            <stop offset="0.39" stop-color="#BA8A48"/>
            <stop offset="1" stop-color="#BA8A48"/>
        </radialGradient>
        <radialGradient cx="3560120" cy="3745532" r="6463876" fx="3560120" fy="3745532" gradientUnits="userSpaceOnUse" spreadMethod="pad" id="fill3" gradientTransform="matrix(0.000104987 0 0 0.000104987 106 87)">
            <stop offset="0" stop-color="#F9EFA0"/>
            <stop offset="0.06" stop-color="#F9EFA0"/>
            <stop offset="0.39" stop-color="#BA8A48"/>
            <stop offset="1" stop-color="#BA8A48"/>
        </radialGradient>
        <linearGradient id="grad1" x1="0%" x2="100%" y1="0%" y2="0%">
            <stop offset="0%" stop-color="rgb(249, 239, 160)" />
            <stop offset="80%" stop-color="rgb(186, 138, 72)" />
        </linearGradient>
    </defs>
    <g>
        <g id="svg_1">
            <path fill="url(#fill1)" fill-rule="evenodd" d="m95.73,873.02c-2.23,0 -4.47,-0.86 -6.17,-2.56c-3.41,-3.41 -3.41,-8.92 0,-12.33l341.55,-341.56c3.41,-3.41 8.92,-3.41 12.33,0c3.41,3.41 3.41,8.92 0,12.33l-341.55,341.56c-1.7,1.7 -3.93,2.56 -6.17,2.56l0.01,0z" id="svg_2"/>
            <path fill="url(#fill2)" fill-rule="evenodd" d="m638.53,383.01c-15.09,0 -29.28,-5.93 -39.96,-16.7c-10.68,-10.76 -16.55,-25.07 -16.55,-40.3c0,-15.23 5.88,-29.54 16.55,-40.3l0,0l0,0c10.68,-10.77 24.86,-16.7 39.96,-16.7c15.1,0 29.29,5.93 39.97,16.7c22.03,22.23 22.03,58.39 0,80.61c-10.68,10.77 -24.87,16.7 -39.97,16.7m0,-96.45c-10.45,0 -20.27,4.1 -27.66,11.56l0,0c-7.4,7.45 -11.46,17.36 -11.46,27.9c0,10.54 4.07,20.45 11.46,27.9c7.39,7.45 17.21,11.56 27.66,11.56c10.46,0 20.27,-4.1 27.67,-11.56c15.25,-15.38 15.25,-40.42 0,-55.81c-7.4,-7.46 -17.22,-11.56 -27.67,-11.56l0,0.01z" id="svg_3"/>
            <path d="m645.931,543.651c139.421,-162.221 215.778,-304.964 226.954,-424.252c0.822,-8.8 -2.298,-17.442 -8.555,-23.6988c-6.256,-6.2566 -14.864,-9.3851 -23.707,-8.555c-119.288,11.1678 -262.039,87.5768 -424.276,227.0158l-162.911,-4.133c-23.987,-0.786 -47.231,8.73 -64.105,25.612l-74.267,74.269c-7.856,7.855 -10.845,18.962 -7.987,29.702c2.857,10.739 10.975,18.892 21.758,21.811l197.427,52.151c0.743,0.192 1.495,0.288 2.237,0.288c3.872,0 7.411,-2.586 8.442,-6.501c1.232,-4.667 -1.547,-9.455 -6.213,-10.687l-197.366,-52.134c-4.64,-1.258 -8.153,-4.78 -9.385,-9.429c-1.241,-4.64 0.052,-9.446 3.451,-12.845l74.268,-74.268c13.51,-13.51 32.219,-20.955 51.312,-20.501l166.266,4.212c0.472,0.009 0.9,-0.183 1.354,-0.253c0.621,-0.079 1.233,-0.131 1.827,-0.341c0.315,-0.122 0.568,-0.332 0.865,-0.481c0.638,-0.314 1.311,-0.568 1.879,-1.048c160.49,-138.443 300.82,-214.162 417.049,-225.041c3.583,-0.324 7.148,0.943 9.709,3.512c2.569,2.561 3.845,6.109 3.504,9.709c-10.81,115.609 -85.776,255.066 -222.804,414.499c-0.375,0.437 -0.533,0.961 -0.803,1.442c-2.159,1.643 -3.627,4.142 -3.557,7.061l4.203,166.258c0.49,19.11 -6.982,37.802 -20.491,51.303l-74.268,74.268c-3.399,3.399 -8.179,4.684 -12.846,3.46c-4.649,-1.241 -8.17,-4.745 -9.428,-9.385l-54.065,-199.35c-1.267,-4.649 -6.047,-7.445 -10.722,-6.143c-4.658,1.267 -7.41,6.056 -6.152,10.722l54.073,199.35c2.902,10.731 11.055,18.832 21.785,21.698c2.692,0.716 5.392,1.066 8.075,1.066c8.021,-0.009 15.746,-3.155 21.636,-9.053l74.268,-74.268c16.882,-16.865 26.206,-40.232 25.612,-64.105l-4.124,-162.885c0.034,-0.026 0.061,-0.035 0.078,-0.052z" fill="url(#fill3)" fill-rule="evenodd" id="svg_4"/>
        </g>
        <path fill="url(#grad1)" d="m1100.00003,380.59703l66.21378,0q41.49397,0 61.50525,26.48551q20.01128,26.48551 20.01128,76.21942q0,49.73391 -20.01128,76.21942q-20.01128,26.48551 -61.50525,26.48551l-66.21378,0l0,-205.40987m63.27095,170.68442q19.71699,0 28.83978,-12.65419q9.12279,-12.65419 9.12279,-36.78544l0,-37.374q0,-23.83696 -9.12279,-36.49115q-9.12279,-12.65419 -28.83978,-12.65419l-19.71699,0l0,135.95897l19.71699,0zm237.78106,34.72545q-13.53704,0 -21.77698,-6.94509q-8.23994,-6.88623 -9.71136,-19.83471l-1.47142,0q-4.11997,15.00846 -16.30331,22.65983q-12.24219,7.65137 -29.8992,7.65137q-22.07126,0 -35.43173,-11.94791q-13.41933,-11.88905 -13.41933,-33.37175q0,-23.83696 17.36273,-35.31402q17.36273,-11.47706 50.91104,-11.47706l24.42553,0l0,-7.65137q0,-13.53704 -6.29767,-20.48213q-6.35652,-6.88623 -21.36498,-6.88623q-13.83132,0 -22.36554,5.2971q-8.53422,5.2971 -14.71417,13.83132l-23.83696,-21.18841q7.65137,-12.94847 23.95468,-21.36498q16.36216,-8.35765 41.96483,-8.35765q31.19405,0 48.73335,14.24332q17.48044,14.30218 17.48044,43.14196l0,66.50807l16.77416,0l0,31.48833l-25.0141,0m-62.68238,-25.0141q11.47706,0 19.42271,-5.59139q7.94565,-5.59139 7.94565,-16.18559l0,-18.24558l-23.2484,0q-26.7798,0 -26.7798,17.95129l0,5.88567q0,7.94565 6.17995,12.06562q6.17995,4.11997 16.47988,4.11997zm195.9928,25.0141q-23.54268,0 -35.01973,-12.35991q-11.47706,-12.35991 -11.47706,-31.48833l0,-74.15944l-41.19969,0l0,-33.8426l26.7798,0q9.71136,0 13.83132,-3.82569q4.11997,-3.82569 4.11997,-14.12561l0,-35.6083l40.02255,0l0,53.55959l59.15098,0l0,33.8426l-59.15098,0l0,84.16508l59.15098,0l0,33.8426l-56.20815,0zm219.82976,0q-13.53704,0 -21.77698,-6.94509q-8.23994,-6.88623 -9.71136,-19.83471l-1.47142,0q-4.11997,15.00846 -16.30331,22.65983q-12.24219,7.65137 -29.8992,7.65137q-22.07126,0 -35.49059,-11.94791q-13.36047,-11.88905 -13.36047,-33.37175q0,-23.83696 17.36273,-35.31402q17.36273,-11.47706 50.91104,-11.47706l24.42553,0l0,-7.65137q0,-13.53704 -6.29767,-20.48213q-6.35652,-6.88623 -21.36498,-6.88623q-13.83132,0 -22.36554,5.2971q-8.53422,5.2971 -14.71417,13.83132l-23.83696,-21.18841q7.65137,-12.94847 23.95468,-21.36498q16.36216,-8.35765 41.96483,-8.35765q31.19405,0 48.73335,14.24332q17.48044,14.30218 17.48044,43.14196l0,66.50807l16.77416,0l0,31.48833l-25.0141,0m-62.68238,-25.0141q11.47706,0 19.42271,-5.59139q7.94565,-5.59139 7.94565,-16.18559l0,-18.24558l-23.2484,0q-26.7798,0 -26.7798,17.95129l0,5.88567q0,7.94565 6.17995,12.06562q6.17995,4.11997 16.47988,4.11997zm158.32452,25.0141l-54.44244,-151.85028l45.90822,0l19.71699,65.03665l14.41989,50.61676l2.35427,0l14.41989,-50.61676l19.71699,-65.03665l44.14252,0l-54.44244,151.85028l-51.79389,0zm211.88411,-171.27299q-14.71417,0 -20.42327,-6.06224q-5.76796,-6.00338 -5.76796,-14.5376l0,-8.53422q0,-8.8285 5.76796,-14.71417q5.7091,-5.88567 20.42327,-5.88567q14.71417,0 20.48213,5.88567q5.7091,5.88567 5.7091,14.71417l0,8.53422q0,8.53422 -5.7091,14.5376q-5.76796,6.06224 -20.48213,6.06224m-70.03947,137.43039l48.26249,0l0,-84.16508l-48.26249,0l0,-33.8426l91.81645,0l0,118.00768l44.73109,0l0,33.8426l-136.54754,0l0,-33.8426zm241.31246,37.374q-38.25685,0 -57.97385,-21.18841q-19.71699,-21.18841 -19.71699,-57.67956q0,-18.53986 5.17939,-33.4306q5.12053,-14.83189 14.71417,-25.30838q9.53478,-10.41764 23.2484,-15.89131q13.65475,-5.41482 30.7232,-5.41482q17.06844,0 30.60548,5.41482q13.53704,5.47367 22.95411,15.47931q9.41707,10.00564 14.59646,24.24896q5.12053,14.30218 5.12053,31.95919l0,12.94847l-103.88207,0l0,2.64855q0,14.71417 9.12279,23.66039q9.12279,9.00507 26.7798,9.00507q13.53704,0 23.2484,-5.17939q9.71136,-5.12053 16.77416,-13.65475l23.54268,25.60266q-8.8285,10.88849 -24.71981,18.83414q-15.89131,7.94565 -40.31684,7.94565m-3.5314,-127.71903q-14.12561,0 -22.48326,8.65193q-8.41651,8.71079 -8.41651,23.42497l0,2.35427l61.21096,0l0,-2.35427q0,-15.00846 -8.06337,-23.54268q-8.12222,-8.53422 -22.24783,-8.53422zm89.75646,-27.66265l36.19687,0l10.88849,123.0105l2.94283,0l17.95129,-123.0105l38.25685,0l17.65701,123.0105l2.94283,0l11.18277,-123.0105l34.43117,0l-17.95129,151.85028l-51.79389,0l-15.00846,-104.76492l-2.94283,0l-15.00846,104.76492l-51.79389,0l-17.95129,-151.85028zm266.91512,155.38168q-38.25685,0 -57.97385,-21.18841q-19.71699,-21.18841 -19.71699,-57.67956q0,-18.53986 5.17939,-33.4306q5.12053,-14.83189 14.71417,-25.30838q9.53478,-10.41764 23.2484,-15.89131q13.65475,-5.41482 30.7232,-5.41482q17.06844,0 30.60548,5.41482q13.53704,5.47367 22.95411,15.47931q9.41707,10.00564 14.59646,24.24896q5.12053,14.30218 5.12053,31.95919l0,12.94847l-103.88207,0l0,2.64855q0,14.71417 9.12279,23.66039q9.12279,9.00507 26.7798,9.00507q13.53704,0 23.2484,-5.17939q9.71136,-5.12053 16.77416,-13.65475l23.54268,25.60266q-8.8285,10.88849 -24.71981,18.83414q-15.89131,7.94565 -40.31684,7.94565m-3.5314,-127.71903q-14.12561,0 -22.48326,8.65193q-8.41651,8.71079 -8.41651,23.42497l0,2.35427l61.21096,0l0,-2.35427q0,-15.00846 -8.06337,-23.54268q-8.12222,-8.53422 -22.24783,-8.53422zm109.47346,90.34503l35.01973,0l0,-84.16508l-35.01973,0l0,-33.8426l78.57369,0l0,42.96539l2.05998,0q2.05998,-8.23994 5.76796,-16.06788q3.64912,-7.76908 9.41707,-13.83132q5.7091,-6.00338 13.94904,-9.53478q8.23994,-3.5314 19.42271,-3.5314l14.41989,0l0,40.02255l-32.37118,0q-16.18559,0 -24.42553,9.53478q-8.23994,9.59364 -8.23994,23.42497l0,45.02537l50.02819,0l0,33.8426l-128.60188,0l0,-33.8426zm243.07816,37.374q-16.47988,0 -23.66039,-7.23937q-7.23937,-7.18052 -7.23937,-17.18616l0,-10.29992q0,-10.00564 7.23937,-17.24501q7.18052,-7.18052 23.66039,-7.18052q16.47988,0 23.66039,7.18052q7.23937,7.23937 7.23937,17.24501l0,10.29992q0,10.00564 -7.23937,17.18616q-7.18052,7.23937 -23.66039,7.23937zm173.33297,0q-25.89695,0 -45.02537,-8.53422q-19.12843,-8.53422 -30.89977,-23.2484l25.60266,-28.25121q11.18277,12.35991 24.6021,18.24558q13.36047,5.88567 27.19179,5.88567q15.89131,0 24.13125,-7.0628q8.23994,-7.0628 8.23994,-20.30556q0,-10.88849 -6.29767,-16.47988q-6.35652,-5.59139 -21.36498,-7.94565l-21.48269,-3.5314q-27.66265,-4.70854 -40.02255,-20.48213q-12.35991,-15.71474 -12.35991,-38.37457q0,-29.72263 19.42271,-46.08479q19.42271,-16.30331 54.44244,-16.30331q23.83696,0 41.49397,7.35709q17.65701,7.35709 28.5455,20.01128l-25.0141,27.95693q-8.23994,-9.12279 -19.42271,-14.30218q-11.18277,-5.12053 -25.30838,-5.12053q-29.72263,0 -29.72263,24.42553q0,10.59421 6.65081,15.89131q6.59195,5.2971 21.60041,7.94565l21.48269,3.82569q25.0141,4.41425 38.55114,18.83414q13.53704,14.41989 13.53704,38.84542q0,14.41989 -5.00282,26.60323q-5.00282,12.24219 -15.00846,21.18841q-10.00564,9.00507 -24.54324,14.00789q-14.59646,5.00282 -34.01917,5.00282zm108.88489,-155.38168l43.55396,0l0,27.66265l2.05998,0q5.59139,-13.53704 16.18559,-22.36554q10.59421,-8.8285 28.83978,-8.8285q12.65419,0 23.07183,4.70854q10.47649,4.70854 18.01015,14.41989q7.4748,9.71136 11.77134,24.71981q4.23768,15.00846 4.23768,35.6083q0,20.59984 -4.23768,35.6083q-4.29654,15.00846 -11.77134,24.71981q-7.53366,9.71136 -18.01015,14.41989q-10.41764,4.70854 -23.07183,4.70854q-18.24558,0 -28.83978,-8.71079q-10.59421,-8.65193 -16.18559,-22.48326l-2.05998,0l0,86.51934l-43.55396,0l0,-210.70698m71.80517,121.53908q14.71417,0 22.65983,-9.00507q7.94565,-8.94622 7.94565,-24.83753l0,-23.54268q0,-15.89131 -7.94565,-24.89638q-7.94565,-8.94622 -22.65983,-8.94622q-11.47706,0 -19.89356,5.59139q-8.35765,5.59139 -8.35765,17.65701l0,44.73109q0,12.06562 8.35765,17.65701q8.41651,5.59139 19.89356,5.59139zm230.71825,30.3112q-13.53704,0 -21.77698,-6.94509q-8.23994,-6.88623 -9.71136,-19.83471l-1.47142,0q-4.11997,15.00846 -16.30331,22.65983q-12.24219,7.65137 -29.8992,7.65137q-22.07126,0 -35.43173,-11.94791q-13.41933,-11.88905 -13.41933,-33.37175q0,-23.83696 17.36273,-35.31402q17.36273,-11.47706 50.91104,-11.47706l24.42553,0l0,-7.65137q0,-13.53704 -6.35652,-20.48213q-6.29767,-6.88623 -21.30612,-6.88623q-13.83132,0 -22.36554,5.2971q-8.53422,5.2971 -14.71417,13.83132l-23.83696,-21.18841q7.65137,-12.94847 24.01353,-21.36498q16.30331,-8.35765 41.90597,-8.35765q31.19405,0 48.67449,14.24332q17.5393,14.30218 17.5393,43.14196l0,66.50807l16.77416,0l0,31.48833l-25.0141,0m-62.68238,-25.0141q11.47706,0 19.42271,-5.59139q7.94565,-5.59139 7.94565,-16.18559l0,-18.24558l-23.2484,0q-26.7798,0 -26.7798,17.95129l0,5.88567q0,7.94565 6.17995,12.06562q6.17995,4.11997 16.47988,4.11997zm190.40142,28.5455q-17.95129,0 -32.19461,-5.47367q-14.30218,-5.41482 -24.13125,-15.71474q-9.88793,-10.29992 -15.18503,-25.0141q-5.2971,-14.71417 -5.2971,-33.25403q0,-18.53986 5.2971,-33.25403q5.2971,-14.71417 15.18503,-25.0141q9.82907,-10.29992 24.13125,-15.77359q14.24332,-5.41482 31.90033,-5.41482q25.0141,0 40.19912,10.12335q15.12617,10.18221 23.07183,26.95637l-33.54832,18.24558q-4.11997,-8.8285 -10.71192,-14.71417q-6.65081,-5.88567 -19.01071,-5.88567q-15.00846,0 -23.07183,8.65193q-8.12222,8.71079 -8.12222,23.71925l0,24.71981q0,15.00846 8.12222,23.66039q8.06337,8.71079 23.66039,8.71079q12.65419,0 19.89356,-5.88567q7.18052,-5.88567 12.18334,-15.30274l32.95975,18.83414q-8.23994,16.77416 -23.95468,26.89751q-15.77359,10.18221 -41.37626,10.18221zm174.51011,0q-38.25685,0 -57.97385,-21.18841q-19.71699,-21.18841 -19.71699,-57.67956q0,-18.53986 5.17939,-33.4306q5.12053,-14.83189 14.71417,-25.30838q9.53478,-10.41764 23.2484,-15.89131q13.65475,-5.41482 30.7232,-5.41482q17.06844,0 30.60548,5.41482q13.53704,5.47367 22.95411,15.47931q9.41707,10.00564 14.59646,24.24896q5.12053,14.30218 5.12053,31.95919l0,12.94847l-103.88207,0l0,2.64855q0,14.71417 9.12279,23.66039q9.12279,9.00507 26.7798,9.00507q13.53704,0 23.2484,-5.17939q9.71136,-5.12053 16.77416,-13.65475l23.54268,25.60266q-8.8285,10.88849 -24.71981,18.83414q-15.89131,7.94565 -40.31684,7.94565m-3.5314,-127.71903q-14.12561,0 -22.54211,8.65193q-8.35765,8.71079 -8.35765,23.42497l0,2.35427l61.21096,0l0,-2.35427q0,-15.00846 -8.06337,-23.54268q-8.12222,-8.53422 -22.24783,-8.53422z" id="svg_5" stroke="null"/>
    </g>
</svg>